<svg width="32" height="32" viewBox="0 0 32 32" fill="none" xmlns="http://www.w3.org/2000/svg">
<rect width="32" height="32" fill="#191619"/>
<path fill-rule="evenodd" clip-rule="evenodd" d="M24.2053 24.1111C21.9813 25.7791 18.7564 26.6667 15.98 26.6667C12.0889 26.6667 8.58444 25.2045 5.93244 22.7707C5.72399 22.5796 5.91022 22.3187 6.15999 22.4667C9.02133 24.1587 12.5591 25.1778 16.2133 25.1778C18.6787 25.1778 21.3884 24.6578 23.8818 23.5831C24.2578 23.4209 24.5733 23.8351 24.2053 24.1111V24.1111ZM25.1307 22.6062C24.8462 22.236 23.2502 22.4307 22.5333 22.5182C22.316 22.5449 22.2822 22.352 22.4782 22.212C23.7511 21.3031 25.8373 21.5658 26.0795 21.8698C26.324 22.1769 26.016 24.3027 24.8227 25.3169C24.6391 25.4729 24.4644 25.3898 24.5458 25.1836C24.8142 24.5022 25.4155 22.9765 25.1307 22.6062Z" fill="#FF9900"/>
<path fill-rule="evenodd" clip-rule="evenodd" d="M19.6342 19.7556C19.4787 19.8969 19.2551 19.9067 19.0804 19.8111C18.3013 19.1533 18.1622 18.8493 17.7364 18.2231C16.4498 19.5556 15.5382 19.9556 13.8711 19.9556C11.8973 19.9556 10.3622 18.7178 10.3622 16.2418C10.3622 14.3076 11.3933 12.9929 12.8627 12.3476C14.1347 11.7804 15.9111 11.6773 17.2702 11.5222V11.2129C17.2702 10.6453 17.3147 9.97512 16.9858 9.48489C16.7004 9.04667 16.152 8.86623 15.6698 8.86623C14.7755 8.86623 13.9804 9.33156 13.7853 10.2973C13.7444 10.5116 13.5907 10.724 13.3778 10.7347L11.1058 10.4849C10.9138 10.4404 10.7004 10.2849 10.756 9.98712C11.2782 7.18489 13.7675 6.33823 15.9982 6.33823C17.1391 6.33823 18.6302 6.648 19.5298 7.52489C20.6698 8.608 20.5604 10.0524 20.5604 11.6258V15.3378C20.5604 16.4542 21.0164 16.944 21.4449 17.5458C21.5947 17.7627 21.6284 18.0204 21.4378 18.1787C20.8322 18.699 20.2328 19.2265 19.6395 19.7609L19.6342 19.7564V19.7556ZM17.2702 13.9467C17.2702 14.8756 17.2924 15.6489 16.832 16.4738C16.4591 17.1449 15.8675 17.5569 15.2089 17.5569C14.3098 17.5569 13.7835 16.8604 13.7835 15.8289C13.7835 13.7996 15.5747 13.4307 17.2702 13.4307V13.9462V13.9467Z" fill="white"/>
</svg>
