<svg width="32" height="32" viewBox="0 0 32 32" fill="none" xmlns="http://www.w3.org/2000/svg">
<rect width="32" height="32" fill="white"/>
<path d="M6 16C6.00287 13.3488 7.05729 10.8069 8.93193 8.93221C10.8066 7.05747 13.3483 6.00305 15.9995 6C18.6508 6.003 21.1928 7.05749 23.0676 8.93221C24.9424 10.8069 25.997 13.3487 26 16V25.0961L24.8088 24.8746V16C24.8061 13.6646 23.8772 11.4256 22.2258 9.77415C20.5743 8.12274 18.3352 7.19383 15.9997 7.19118C13.6642 7.19383 11.4252 8.12274 9.77373 9.77415C8.1223 11.4256 7.19337 13.6646 7.19072 16C7.19337 18.3354 8.1223 20.5744 9.77373 22.2258C11.4252 23.8773 13.6642 24.8062 15.9997 24.8088C16.9222 24.8095 17.8391 24.6654 18.7169 24.3816L20.8099 24.7713C20.2943 25.054 19.7546 25.2906 19.1972 25.4781C18.1668 25.8244 17.0868 26.0006 15.9997 26C13.3485 25.9969 10.8068 24.9422 8.93226 23.0675C7.05768 21.1927 6.00331 18.6508 6.00048 15.9997L6 16ZM22.9864 24.5357V16.0003C22.9844 14.1479 22.2477 12.3718 20.9378 11.062C19.6279 9.75212 17.8518 9.01565 15.9994 9.01374C14.147 9.01578 12.3711 9.75247 11.0612 11.0623C9.7514 12.3721 9.01471 14.148 9.01266 16.0003C9.01484 17.8526 9.75159 19.6283 11.0614 20.938C12.3712 22.2478 14.147 22.9847 15.9994 22.9869C16.9334 22.9874 17.8581 22.8006 18.7186 22.4374V23.7136C17.8451 24.0214 16.9255 24.1783 15.9994 24.1774C13.8313 24.1749 11.7528 23.3126 10.2198 21.7797C8.68666 20.2467 7.82416 18.1683 7.82146 16.0003C7.82403 13.8323 8.68647 11.7536 10.2196 10.2206C11.7527 8.68767 13.8313 7.82559 15.9994 7.8232C18.1674 7.82559 20.2459 8.68765 21.779 10.2206C23.312 11.7536 24.1744 13.8323 24.1768 16.0003V24.7575L22.9864 24.5357ZM21.1694 24.197V16C21.1678 14.6293 20.6228 13.3154 19.6535 12.3462C18.6843 11.377 17.37 10.8317 15.9994 10.8302C14.6288 10.8319 13.3149 11.3774 12.3458 12.3465C11.3768 13.3157 10.8318 14.6295 10.8303 16C10.8319 17.3704 11.3769 18.6844 12.346 19.6535C13.3151 20.6225 14.6289 21.1675 15.9994 21.1692C16.9595 21.1709 17.9011 20.9051 18.7186 20.4017V21.754C17.868 22.1543 16.9394 22.3614 15.9994 22.3603C14.3132 22.3582 12.6968 21.6874 11.5045 20.4951C10.3122 19.3028 9.64141 17.6865 9.63924 16.0003C9.64133 14.3141 10.312 12.6975 11.5044 11.5052C12.6967 10.3129 14.3132 9.64207 15.9994 9.63998C17.6856 9.6419 19.3023 10.3126 20.4947 11.5049C21.687 12.6973 22.3577 14.3141 22.3596 16.0003V24.4188L21.1694 24.197ZM19.3494 23.8587V16C19.3485 15.1119 18.9952 14.2606 18.3671 13.6327C17.7391 13.0048 16.8875 12.6516 15.9994 12.6508C15.1114 12.6518 14.2601 13.0052 13.6322 13.633C13.0043 14.2609 12.6512 15.112 12.6503 16C12.6512 16.8879 13.0043 17.7394 13.6322 18.3673C14.2601 18.9952 15.1114 19.3482 15.9994 19.3492C16.5305 19.3499 17.0544 19.2242 17.5273 18.9823C18.0002 18.7404 18.4085 18.3892 18.7186 17.958V19.6384C17.9335 20.225 16.9794 20.5414 15.9994 20.54C14.7957 20.5386 13.6419 20.0597 12.7909 19.2086C11.9399 18.3574 11.4612 17.2036 11.4599 16C11.4612 14.7965 11.9399 13.6428 12.7909 12.7917C13.6419 11.9407 14.7958 11.4619 15.9994 11.4606C17.203 11.4618 18.3571 11.9404 19.2083 12.7914C20.0595 13.6424 20.5382 14.7964 20.5396 16V24.0802L19.3494 23.8587Z" fill="#1B1C1D"/>
</svg>
