<svg width="32" height="32" viewBox="0 0 32 32" fill="none" xmlns="http://www.w3.org/2000/svg">
<rect width="32" height="32" fill="#272727"/>
<path d="M20.939 12.0607C21.2539 10.0763 20.35 9.00927 18.2271 8.85954H15.2824C14.7356 8.82339 14.2465 9.20009 14.1377 9.74113L13.9081 10.559L16.4736 10.4786C17.0492 10.3545 17.7713 10.8138 18.1739 11.625C18.6264 12.5267 18.4567 13.3513 17.8578 13.6563C17.2588 13.9613 16.4603 13.6295 16.0077 12.7311C15.675 12.0607 15.6517 11.4507 15.9212 11.0048L13.795 11.0719L12.2877 16.2541L15.4853 16.1268C16.244 15.9558 17.2023 16.5659 17.7413 17.6184C18.3469 18.8017 18.2038 19.881 17.4086 20.3C16.6133 20.719 15.4953 20.3 14.8897 19.1134C14.4306 18.2184 14.4039 17.3871 14.7533 16.7972L12.0914 16.9011C12.0914 16.9011 11.1098 20.3168 11.0932 20.4442C11.0481 20.6281 11.0169 20.8153 11 21.004C11 21.7908 11.6331 22.4286 12.4141 22.4286H12.7469H14.5969C17.4252 22.2777 19.2752 20.9436 20.1637 18.4564C20.5541 16.5726 19.8886 15.4552 18.1672 15.1044L18.1872 15.0306C19.527 14.6329 20.4443 13.6429 20.939 12.0607Z" fill="url(#paint0_linear_132_677)"/>
<path d="M16 6C10.4772 6 6 10.4772 6 16C6 21.5228 10.4772 26 16 26C21.5228 26 26 21.5228 26 16C25.9944 10.4795 21.5205 6.00558 16 6ZM16 25.3189C12.2289 25.3203 8.82836 23.0495 7.38457 19.5657C5.94079 16.0819 6.73816 12.0714 9.40475 9.40475C12.0714 6.73816 16.0819 5.94079 19.5657 7.38457C23.0495 8.82836 25.3203 12.2289 25.3189 16C25.3134 21.1444 21.1444 25.3134 16 25.3189Z" fill="url(#paint1_linear_132_677)"/>
<defs>
<linearGradient id="paint0_linear_132_677" x1="11.0233" y1="15.6441" x2="21.0088" y2="15.6441" gradientUnits="userSpaceOnUse">
<stop offset="0.06" stop-color="#0066FF"/>
<stop offset="0.53" stop-color="#33DDFA"/>
<stop offset="0.92" stop-color="#A6FFCB"/>
</linearGradient>
<linearGradient id="paint1_linear_132_677" x1="6" y1="16" x2="26" y2="16" gradientUnits="userSpaceOnUse">
<stop stop-color="#0089FF"/>
<stop offset="0.49" stop-color="#12D8FA"/>
<stop offset="1" stop-color="#A6FFCB"/>
</linearGradient>
</defs>
</svg>
