<svg width="32" height="32" viewBox="0 0 32 32" fill="none" xmlns="http://www.w3.org/2000/svg">
<rect width="32" height="32" fill="black"/>
<path d="M3.375 19V13.1818H5.89773C6.34091 13.1818 6.71307 13.2415 7.0142 13.3608C7.31723 13.4801 7.54545 13.6487 7.69886 13.8665C7.85417 14.0843 7.93182 14.3409 7.93182 14.6364C7.93182 14.8504 7.88447 15.0455 7.78977 15.2216C7.69697 15.3977 7.56629 15.5455 7.39773 15.6648C7.22917 15.7822 7.0322 15.8636 6.80682 15.9091V15.9659C7.05682 15.9754 7.28409 16.0388 7.48864 16.1562C7.69318 16.2718 7.85606 16.4318 7.97727 16.6364C8.09848 16.839 8.15909 17.0777 8.15909 17.3523C8.15909 17.6705 8.07576 17.9536 7.90909 18.2017C7.74432 18.4498 7.50947 18.6449 7.20455 18.7869C6.89962 18.929 6.53598 19 6.11364 19H3.375ZM4.95455 17.7386H5.69318C5.95833 17.7386 6.1572 17.6894 6.28977 17.5909C6.42235 17.4905 6.48864 17.3428 6.48864 17.1477C6.48864 17.0114 6.45739 16.8958 6.39489 16.8011C6.33239 16.7064 6.24337 16.6345 6.12784 16.5852C6.0142 16.536 5.87689 16.5114 5.71591 16.5114H4.95455V17.7386ZM4.95455 15.5341H5.60227C5.74053 15.5341 5.86269 15.5123 5.96875 15.4688C6.07481 15.4252 6.1572 15.3627 6.21591 15.2812C6.27652 15.1979 6.30682 15.0966 6.30682 14.9773C6.30682 14.7973 6.24242 14.66 6.11364 14.5653C5.98485 14.4688 5.82197 14.4205 5.625 14.4205H4.95455V15.5341ZM14.3551 16.0909C14.3551 16.7386 14.2292 17.285 13.9773 17.7301C13.7254 18.1733 13.3854 18.5095 12.9574 18.7386C12.5294 18.9659 12.0521 19.0795 11.5256 19.0795C10.9953 19.0795 10.5161 18.965 10.0881 18.7358C9.66193 18.5047 9.32292 18.1676 9.07102 17.7244C8.82102 17.2794 8.69602 16.7348 8.69602 16.0909C8.69602 15.4432 8.82102 14.8977 9.07102 14.4545C9.32292 14.0095 9.66193 13.6733 10.0881 13.446C10.5161 13.2169 10.9953 13.1023 11.5256 13.1023C12.0521 13.1023 12.5294 13.2169 12.9574 13.446C13.3854 13.6733 13.7254 14.0095 13.9773 14.4545C14.2292 14.8977 14.3551 15.4432 14.3551 16.0909ZM12.7301 16.0909C12.7301 15.7424 12.6837 15.4489 12.5909 15.2102C12.5 14.9697 12.3646 14.7879 12.1847 14.6648C12.0066 14.5398 11.7869 14.4773 11.5256 14.4773C11.2642 14.4773 11.0436 14.5398 10.8636 14.6648C10.6856 14.7879 10.5502 14.9697 10.4574 15.2102C10.3665 15.4489 10.321 15.7424 10.321 16.0909C10.321 16.4394 10.3665 16.7339 10.4574 16.9744C10.5502 17.2131 10.6856 17.3949 10.8636 17.5199C11.0436 17.643 11.2642 17.7045 11.5256 17.7045C11.7869 17.7045 12.0066 17.643 12.1847 17.5199C12.3646 17.3949 12.5 17.2131 12.5909 16.9744C12.6837 16.7339 12.7301 16.4394 12.7301 16.0909ZM20.7223 16.0909C20.7223 16.7386 20.5964 17.285 20.3445 17.7301C20.0926 18.1733 19.7526 18.5095 19.3246 18.7386C18.8965 18.9659 18.4193 19.0795 17.8928 19.0795C17.3625 19.0795 16.8833 18.965 16.4553 18.7358C16.0291 18.5047 15.6901 18.1676 15.4382 17.7244C15.1882 17.2794 15.0632 16.7348 15.0632 16.0909C15.0632 15.4432 15.1882 14.8977 15.4382 14.4545C15.6901 14.0095 16.0291 13.6733 16.4553 13.446C16.8833 13.2169 17.3625 13.1023 17.8928 13.1023C18.4193 13.1023 18.8965 13.2169 19.3246 13.446C19.7526 13.6733 20.0926 14.0095 20.3445 14.4545C20.5964 14.8977 20.7223 15.4432 20.7223 16.0909ZM19.0973 16.0909C19.0973 15.7424 19.0509 15.4489 18.9581 15.2102C18.8672 14.9697 18.7318 14.7879 18.5518 14.6648C18.3738 14.5398 18.1541 14.4773 17.8928 14.4773C17.6314 14.4773 17.4107 14.5398 17.2308 14.6648C17.0528 14.7879 16.9174 14.9697 16.8246 15.2102C16.7337 15.4489 16.6882 15.7424 16.6882 16.0909C16.6882 16.4394 16.7337 16.7339 16.8246 16.9744C16.9174 17.2131 17.0528 17.3949 17.2308 17.5199C17.4107 17.643 17.6314 17.7045 17.8928 17.7045C18.1541 17.7045 18.3738 17.643 18.5518 17.5199C18.7318 17.3949 18.8672 17.2131 18.9581 16.9744C19.0509 16.7339 19.0973 16.4394 19.0973 16.0909ZM21.4531 13.1818H23.419L24.7713 16.4773H24.8395L26.1918 13.1818H28.1577V19H26.6122V15.6364H26.5668L25.2713 18.9545H24.3395L23.044 15.6136H22.9986V19H21.4531V13.1818Z" fill="white"/>
</svg>
