<svg width="32" height="32" viewBox="0 0 32 32" fill="none" xmlns="http://www.w3.org/2000/svg">
<rect width="32" height="32" fill="white"/>
<path fill-rule="evenodd" clip-rule="evenodd" d="M16.1602 6.51282L16.3492 6.51423C22.1282 6.60097 26.4587 10.6634 26.5571 16.0592L26.6061 16.1006C26.7115 16.2014 26.7548 16.331 26.7548 16.4851V20.2214L26.7509 20.2857C26.7072 20.6416 26.301 20.8514 25.8583 20.8514L25.813 20.8477C25.712 20.8307 25.643 20.7561 25.6083 20.6573L25.2026 20.942L25.2026 21.7942L25.1994 21.8512C25.1718 22.0903 24.9681 22.2242 24.6669 22.2242H23.5122L23.4472 22.2222C23.144 22.203 22.8461 22.0506 22.8461 21.7942V14.3724L22.8506 14.3185C22.8917 14.0713 23.2097 13.8908 23.5122 13.8908H24.6669L24.7346 13.8939C25.0204 13.9208 25.2026 14.1176 25.2026 14.3724L25.2026 15.4056L25.416 15.5421L25.4013 15.376C24.9606 10.906 21.15 7.63274 16.1668 7.63274L15.9827 7.63424C11.0282 7.71474 7.2467 11.0429 6.88961 15.5421L7.35897 15.219V14.3724L7.36302 14.3185C7.40041 14.0713 7.69091 13.8908 7.99339 13.8908H9.14809L9.21183 13.8935C9.50377 13.9187 9.71539 14.1163 9.71539 14.3724V21.7942L9.71173 21.8512C9.68027 22.0903 9.44929 22.2242 9.14809 22.2242H7.99339L7.92885 22.2222C7.62931 22.203 7.35897 22.0506 7.35897 21.7942V21.1482L6.69757 20.6573L6.68031 20.6981C6.63457 20.7893 6.55113 20.8514 6.44099 20.8514L6.36302 20.8493C5.92256 20.8248 5.51282 20.5943 5.51282 20.2214V16.4851L5.51702 16.4206C5.53643 16.2735 5.62181 16.1517 5.74538 16.0592C5.84473 10.6048 10.2869 6.51282 16.1602 6.51282Z" fill="#313131"/>
<path d="M16.2075 24.1817L12.2504 20.1367L11.0665 21.3471L15.0235 25.3921L16.2075 24.1817Z" fill="#FF0000"/>
<path d="M18.3397 19.2718V17.5563H12.7295V19.2718H18.3397Z" fill="#FF0000"/>
<path d="M16.2075 12.6463L15.0235 11.4359L11.0665 15.481L12.2504 16.6913L16.2075 12.6463Z" fill="#FF0000"/>
</svg>
