<svg width="32" height="32" viewBox="0 0 32 32" fill="none" xmlns="http://www.w3.org/2000/svg">
<rect width="32" height="32" fill="#111111"/>
<path d="M27 9H22.2429V11.7833H27V9Z" fill="#40AB5D"/>
<path d="M27 12.8589H22.2429V15.6421H27V12.8589Z" fill="url(#paint0_linear_1_174)"/>
<path d="M27 16.7177H22.2429V19.501H27V16.7177Z" fill="url(#paint1_linear_1_174)"/>
<path d="M9.75706 20.5766H5V23.3599H9.75706V20.5766Z" fill="url(#paint2_linear_1_174)"/>
<path d="M15.501 20.5766H10.7439V23.3599H15.501V20.5766Z" fill="url(#paint3_linear_1_174)"/>
<path d="M21.2561 20.5766H16.499V23.3599H21.2561V20.5766Z" fill="url(#paint4_linear_1_174)"/>
<path d="M27 20.5766H22.2429V23.3599H27V20.5766Z" fill="url(#paint5_linear_1_174)"/>
<path d="M21.2561 16.7177H16.499V19.501H21.2561V16.7177Z" fill="url(#paint6_linear_1_174)"/>
<path d="M15.501 16.7177H10.7439V19.501H15.501V16.7177Z" fill="url(#paint7_linear_1_174)"/>
<path d="M15.501 12.8589H10.7439V15.6421H15.501V12.8589Z" fill="url(#paint8_linear_1_174)"/>
<defs>
<linearGradient id="paint0_linear_1_174" x1="24.6448" y1="15.6662" x2="24.6" y2="12.818" gradientUnits="userSpaceOnUse">
<stop stop-color="#358C7B"/>
<stop offset="0.5256" stop-color="#33A65E"/>
</linearGradient>
<linearGradient id="paint1_linear_1_174" x1="22.173" y1="19.3581" x2="27.0721" y2="16.8619" gradientUnits="userSpaceOnUse">
<stop stop-color="#222B90"/>
<stop offset="1" stop-color="#367B99"/>
</linearGradient>
<linearGradient id="paint2_linear_1_174" x1="5.00087" y1="21.9693" x2="9.75395" y2="21.9693" gradientUnits="userSpaceOnUse">
<stop stop-color="#FF9900"/>
<stop offset="1" stop-color="#FF8000"/>
</linearGradient>
<linearGradient id="paint3_linear_1_174" x1="10.7492" y1="21.9693" x2="15.5023" y2="21.9693" gradientUnits="userSpaceOnUse">
<stop stop-color="#FF8000"/>
<stop offset="1" stop-color="#CC1953"/>
</linearGradient>
<linearGradient id="paint4_linear_1_174" x1="16.4976" y1="21.9693" x2="21.2507" y2="21.9693" gradientUnits="userSpaceOnUse">
<stop stop-color="#CC1953"/>
<stop offset="1" stop-color="#241284"/>
</linearGradient>
<linearGradient id="paint5_linear_1_174" x1="22.2404" y1="21.9693" x2="26.9935" y2="21.9693" gradientUnits="userSpaceOnUse">
<stop stop-color="#222B90"/>
<stop offset="1" stop-color="#3559A6"/>
</linearGradient>
<linearGradient id="paint6_linear_1_174" x1="16.31" y1="18.8598" x2="21.4383" y2="17.3602" gradientUnits="userSpaceOnUse">
<stop stop-color="#CC1953"/>
<stop offset="1" stop-color="#241284"/>
</linearGradient>
<linearGradient id="paint7_linear_1_174" x1="10.5801" y1="17.1834" x2="15.6715" y2="19.0366" gradientUnits="userSpaceOnUse">
<stop offset="0.00266984" stop-color="#FFCC00"/>
<stop offset="0.9999" stop-color="#CE1938"/>
</linearGradient>
<linearGradient id="paint8_linear_1_174" x1="11.1488" y1="12.4263" x2="15.1028" y2="16.075" gradientUnits="userSpaceOnUse">
<stop offset="0.00266984" stop-color="#FFD100"/>
<stop offset="1" stop-color="#FD5A22"/>
</linearGradient>
</defs>
</svg>
