<svg width="32" height="32" viewBox="0 0 32 32" fill="none" xmlns="http://www.w3.org/2000/svg">
<rect width="32" height="32" fill="#060716"/>
<g clip-path="url(#clip0_132_638)">
<path d="M7.51455 11H6.35106V12.7086H4.99963V13.8714H6.35106V16.2419L4.99963 16.4387V17.6642L6.35106 17.4674V19.498C6.35106 19.659 6.2168 19.7932 6.0557 19.7932H5.08016V20.9561H6.53901C7.07601 20.9561 7.51455 20.5177 7.51455 19.981V17.2975L8.69596 17.1186V15.8931L7.51455 16.072V13.8804H8.69596V12.7175H7.51455V11Z" fill="white"/>
<path d="M14.1038 11H12.9493V17.0738L9.11865 17.4047V18.6302L12.9493 18.3082V21.0365H14.1038V18.2009L15.2853 18.0935V16.868L14.1038 16.9754V11Z" fill="white"/>
<path d="M12.3492 12.3514L9.60156 11.8593V13.0938L12.3492 13.5768V12.3514Z" fill="white"/>
<path d="M12.3492 14.9002L9.60156 14.4082V15.6426L12.3492 16.1346V14.9002Z" fill="white"/>
<path d="M24.7266 14.3905L24.9055 13.4423H23.6794L23.4915 14.3905H20.2873L20.1441 13.4423H18.909L19.0611 14.3905H16.7341V15.5266H27V14.3905H24.7266Z" fill="white"/>
<path d="M26.6776 11.8051H22.7843L22.5874 11H21.0749L21.2718 11.8051H17.0563V12.9322H26.6777L26.6776 11.8051Z" fill="white"/>
<path d="M25.0933 16.3592H18.6404C18.1033 16.3592 17.6648 16.7975 17.6648 17.3342V19.991C17.6648 20.5277 18.1033 20.966 18.6404 20.966H25.0933C25.6303 20.966 26.0689 20.5277 26.0689 19.991V17.3342C26.0689 16.7975 25.6392 16.3592 25.0933 16.3592ZM19.052 17.4147H24.6904C24.8515 17.4147 24.9857 17.5489 24.9857 17.7099V18.184H18.7657V17.7099C18.7567 17.5399 18.891 17.4147 19.0521 17.4147H19.052ZM24.6904 19.9194H19.052C18.8909 19.9194 18.7567 19.7852 18.7567 19.6242V19.1412H24.9772V19.6242C24.9772 19.7852 24.8519 19.9194 24.6908 19.9194H24.6904Z" fill="white"/>
</g>
<defs>
<clipPath id="clip0_132_638">
<rect width="22" height="10.0365" fill="white" transform="translate(5 11)"/>
</clipPath>
</defs>
</svg>
