<svg width="32" height="32" viewBox="0 0 32 32" fill="none" xmlns="http://www.w3.org/2000/svg">
<rect width="32" height="32" fill="#E72C30"/>
<path fill-rule="evenodd" clip-rule="evenodd" d="M20.9732 5.33696C21.7393 5.32883 22.5012 5.33696 23.3334 5.33696C23.2322 5.94041 23.1413 6.51542 23.0401 7.08433C22.4868 10.2154 21.9251 13.3505 21.3655 16.4836C21.0125 18.4504 20.6883 20.4192 20.2877 22.382C19.7488 25.0559 17.7046 26.2872 15.6046 26.5879C15.0962 26.6464 14.5843 26.6715 14.0725 26.6631C12.305 26.6712 10.5354 26.6631 8.7658 26.6631C8.73162 26.6604 8.69814 26.6521 8.66669 26.6387C8.67495 26.596 8.66669 26.5473 8.68734 26.5107C9.1829 25.6289 9.66608 24.7491 10.1823 23.8835C10.2587 23.7616 10.49 23.6763 10.651 23.6763C12.2058 23.66 13.7504 23.6681 15.3052 23.6681C16.4884 23.6681 17.0954 23.1866 17.3494 22.0285C17.4733 21.5469 17.5414 21.0877 17.6509 20.5351C17.3824 20.5351 17.1656 20.5432 16.9488 20.5351C15.8875 20.5086 14.8179 20.5554 13.7648 20.4416C12.1707 20.2587 11.064 19.2631 10.7481 17.8916C10.5725 17.1399 10.6737 16.3962 10.8038 15.6526C11.1569 13.6776 11.4976 11.6925 11.8734 9.71962C12.3277 7.32815 14.1819 5.61125 16.635 5.42229C18.0742 5.30648 19.5258 5.35118 20.9712 5.33696H20.9732ZM17.5146 8.32984L16.7444 8.33188C15.7161 8.34813 15.0161 8.93533 14.8303 9.95734C14.63 11.0586 14.4235 12.1538 14.2315 13.257C14.0622 14.2465 13.8701 15.234 13.7566 16.2296C13.6698 16.9407 14.0601 17.5706 14.791 17.5706H17.6674C18.0329 17.5706 18.2001 17.4467 18.2621 17.0809C18.6688 14.6753 19.0921 12.2696 19.5134 9.86388C19.6786 8.96174 19.214 8.36845 18.2827 8.34C17.7686 8.32375 17.2606 8.33188 16.7444 8.33188L17.5146 8.32984Z" fill="white"/>
</svg>
