<svg width="32" height="32" viewBox="0 0 32 32" fill="none" xmlns="http://www.w3.org/2000/svg">
<rect width="32" height="32" fill="white"/>
<path d="M24.85 14.7684L8.17495 5.2934C7.46245 4.89341 6.82495 4.9309 6.43745 5.30592C6.16245 5.56842 6.01245 5.99342 6.01245 6.54342V25.4559C6.01245 26.0059 6.17495 26.4309 6.43745 26.6934C6.83745 27.0809 7.46245 27.1184 8.17495 26.706L24.85 17.231C26.05 16.556 26.05 15.4559 24.85 14.7684V14.7684Z" fill="#F4481E"/>
<path opacity="0.1" d="M24.85 14.8934L8.175 5.41842C6.975 4.74342 6 5.30592 6 6.66842V6.54343C6 5.16842 6.975 4.60592 8.175 5.29342L24.85 14.7684C25.475 15.1184 25.775 15.5934 25.7375 16.0684C25.7125 15.6434 25.425 15.2184 24.85 14.8934Z" fill="white"/>
<path d="M23.2 18.1809C23.4 17.4934 23.5 16.7559 23.5 16.0059C23.5 11.5934 19.9125 8.00592 15.5 8.00592C11.0875 8.00592 7.5 11.5934 7.5 16.0059C7.5 19.7059 10.0125 22.8184 13.425 23.7309L23.2 18.1809Z" fill="#FFD119"/>
<path d="M15.5 21.0059C18.2614 21.0059 20.5 18.7673 20.5 16.0059C20.5 13.2445 18.2614 11.0059 15.5 11.0059C12.7386 11.0059 10.5 13.2445 10.5 16.0059C10.5 18.7673 12.7386 21.0059 15.5 21.0059Z" fill="#FF8C00"/>
<path d="M15.5 8.00592C11.0875 8.00592 7.5 11.5934 7.5 16.0059C7.5 19.7059 10.0125 22.8184 13.425 23.7309L23.2 18.1809C23.4 17.4934 23.5 16.7559 23.5 16.0059C23.5 11.5934 19.9125 8.00592 15.5 8.00592V8.00592Z" fill="url(#paint0_linear_104_238)"/>
<g opacity="0.722" filter="url(#filter0_f_104_238)">
<path d="M15.6865 13.5674V16.6424C15.5115 16.5424 15.3115 16.4799 15.099 16.4799C14.449 16.4799 13.9365 17.0049 13.9365 17.6424C13.9365 18.2924 14.4615 18.8049 15.099 18.8049C15.749 18.8049 16.3115 18.2799 16.3115 17.6424V14.8174H17.4365V13.5674H15.6865Z" fill="#808080"/>
</g>
<path d="M15.5 13.3809V16.4559C15.325 16.3559 15.125 16.2934 14.9125 16.2934C14.2625 16.2934 13.75 16.8184 13.75 17.4559C13.75 18.1059 14.275 18.6184 14.9125 18.6184C15.5625 18.6184 16.125 18.0934 16.125 17.4559V14.6309H17.25V13.3809H15.5Z" fill="#FAFAFA"/>
<path opacity="0.3" d="M15.5 8.13092C19.9 8.13092 23.475 11.6809 23.5 16.0809V16.0059C23.5 11.5934 19.9125 8.00592 15.5 8.00592C11.0875 8.00592 7.5 11.5934 7.5 16.0059V16.0684C7.5375 11.6809 11.1 8.13092 15.5 8.13092Z" fill="white"/>
<defs>
<filter id="filter0_f_104_238" x="11.1755" y="10.8063" width="9.0221" height="10.7596" filterUnits="userSpaceOnUse" color-interpolation-filters="sRGB">
<feFlood flood-opacity="0" result="BackgroundImageFix"/>
<feBlend mode="normal" in="SourceGraphic" in2="BackgroundImageFix" result="shape"/>
<feGaussianBlur stdDeviation="1.38052" result="effect1_foregroundBlur_104_238"/>
</filter>
<linearGradient id="paint0_linear_104_238" x1="16.5411" y1="17.8109" x2="18.4066" y2="21.0422" gradientUnits="userSpaceOnUse">
<stop stop-color="#991700" stop-opacity="0"/>
<stop offset="1" stop-color="#991700" stop-opacity="0.1"/>
</linearGradient>
</defs>
</svg>
