<svg width="32" height="32" viewBox="0 0 32 32" fill="none" xmlns="http://www.w3.org/2000/svg">
<rect width="32" height="32" fill="#E03B2F"/>
<path d="M22.0426 13.4255C22.0426 17.3033 18.899 20.4468 15.0213 20.4468C11.1435 20.4468 8 17.3033 8 13.4255C8 9.54779 11.1435 6.40426 15.0213 6.40426C18.899 6.40426 22.0426 9.54779 22.0426 13.4255Z" fill="white"/>
<path d="M23.9149 6.75532C23.9149 7.72476 23.129 8.51064 22.1596 8.51064C21.1901 8.51064 20.4043 7.72476 20.4043 6.75532C20.4043 5.78588 21.1901 5 22.1596 5C23.129 5 23.9149 5.78588 23.9149 6.75532Z" fill="white"/>
<path d="M21.3404 24.4255C21.3404 25.8474 18.5636 27 15.1383 27C11.713 27 8.93617 25.8474 8.93617 24.4255C8.93617 23.0037 11.713 21.8511 15.1383 21.8511C18.5636 21.8511 21.3404 23.0037 21.3404 24.4255Z" fill="white"/>
</svg>
