<svg width="32" height="32" viewBox="0 0 32 32" fill="none" xmlns="http://www.w3.org/2000/svg">
<rect width="32" height="32" fill="#367EEB"/>
<path d="M7.74036 7.95236L23.4664 14.8364L9.92636 25.4694L7.74036 7.95236Z" fill="white"/>
<path d="M11.0395 24.3713L12.0065 23.4043C11.9141 23.1741 11.8372 22.9379 11.7765 22.6973L9.98347 16.0503L8.55847 10.7123L8.20747 9.40335C7.78947 7.84635 8.13147 6.64835 9.00747 6.03235C8.76115 6.07733 8.52438 6.16426 8.30747 6.28935C8.28534 6.301 8.26397 6.31403 8.24347 6.32835L8.22047 6.34235L8.16747 6.37635L8.13047 6.40435L8.08947 6.43435L8.01347 6.49435L7.99247 6.51035L7.93247 6.56535L7.91447 6.58135C7.89103 6.60149 7.86866 6.62285 7.84747 6.64535C7.24902 7.34573 6.94763 8.25206 7.00747 9.17135V22.9483C6.95763 23.821 7.22349 24.6825 7.75647 25.3753C8.70647 25.8123 9.90547 25.5033 11.0395 24.3713V24.3713Z" fill="#276FB7"/>
<path d="M23.3754 13.4813L17.4164 10.0374L11.4464 6.59335C10.717 6.12394 9.84673 5.92344 8.98542 6.02635C8.11242 6.64135 7.77342 7.84035 8.19142 9.39435L8.55142 10.7123C8.7978 10.7438 9.04172 10.7923 9.28142 10.8574L15.9404 12.6393L21.2744 14.0633L22.5874 14.4143C24.1414 14.8323 25.0074 15.7234 25.1134 16.7844C25.5194 15.6394 24.9364 14.3863 23.3754 13.4813V13.4813Z" fill="#EF5F24"/>
<path d="M11.4624 25.5263L12.8904 24.7183L12.9184 24.7023L17.4184 22.0913L23.3884 18.6473C24.1687 18.2541 24.7822 17.5942 25.1174 16.7873C25.0174 15.7263 24.1504 14.8353 22.5914 14.4173L21.2784 14.0663C21.1269 14.2664 20.9619 14.4559 20.7844 14.6333L15.9094 19.5033L12.0094 23.4033L11.0424 24.3703C9.91043 25.5023 8.70943 25.8103 7.74243 25.3703C8.54143 26.2983 9.90543 26.4243 11.4624 25.5263V25.5263Z" fill="#6EBD46"/>
</svg>
