<svg width="32" height="32" viewBox="0 0 32 32" fill="none" xmlns="http://www.w3.org/2000/svg">
<g clip-path="url(#clip0_1_557)">
<path d="M31.9906 0H0.009375C0.00419733 0 0 0.00419733 0 0.009375V31.9906C0 31.9958 0.00419733 32 0.009375 32H31.9906C31.9958 32 32 31.9958 32 31.9906V0.009375C32 0.00419733 31.9958 0 31.9906 0Z" fill="white"/>
<path d="M9.21249 18.8312C7.19374 17.0437 6.17499 15.1813 6.17499 13.4125C6.17499 11.6438 7.16874 9.79375 8.48124 8.96875C9.12499 8.69375 9.39374 9.48125 8.98124 9.75625C7.93749 10.4125 7.11249 11.95 7.11249 13.425C7.11249 14.9 8.03124 16.525 9.83749 18.125C10.275 18.6687 9.59999 19.1563 9.21874 18.825L9.21249 18.8312ZM12.2437 17.2375C10.875 16.4687 9.95624 14.9687 9.95624 13.525C9.95624 12.0812 10.7375 10.7937 11.975 10.15C12.6312 9.91875 12.85 10.7313 12.4125 10.975C11.475 11.4625 10.8937 12.4313 10.8937 13.4875C10.9 14.6375 11.625 15.8125 12.7062 16.4188C13.25 16.8625 12.6687 17.4625 12.2437 17.2437V17.2375ZM16 15.8687C14.8812 15.8687 13.9687 14.9625 13.9687 13.8438C13.9687 12.725 14.8812 11.8125 16 11.8125V9.89375C14.7875 8.0875 12.7 6.84375 10.3562 6.84375C6.63124 6.84375 3.61249 9.8625 3.61249 13.5875C3.61249 15.95 5.11249 17.6563 6.67499 19.2313L12.7937 25.0187C13.1875 25.2625 13.6375 25.1 13.6437 24.6562V20.15C13.6437 18.8437 14.7 17.7875 16.0062 17.7875L16 15.8687Z" fill="#C6002B"/>
<path d="M22.6625 18.8312C24.6813 17.0437 25.7 15.1813 25.7 13.4125C25.7 11.6438 24.7063 9.79375 23.3938 8.96875C22.75 8.69375 22.4813 9.48125 22.8938 9.75625C23.9375 10.4125 24.7625 11.95 24.7625 13.425C24.7625 14.9 23.8438 16.525 22.0375 18.125C21.6 18.6687 22.275 19.1563 22.6563 18.825L22.6625 18.8312ZM19.6313 17.2375C21 16.4687 21.9188 14.9687 21.9188 13.525C21.9188 12.0812 21.1375 10.7937 19.9 10.15C19.2438 9.91875 19.025 10.7313 19.4625 10.975C20.4 11.4625 20.9813 12.4313 20.9813 13.4875C20.975 14.6375 20.25 15.8125 19.1688 16.4188C18.625 16.8625 19.2063 17.4625 19.6313 17.2437V17.2375ZM15.875 15.8687C16.9938 15.8687 17.9063 14.9625 17.9063 13.8438C17.9063 12.725 16.9938 11.8125 15.875 11.8125V9.89375C17.0875 8.0875 19.175 6.84375 21.5188 6.84375C25.2438 6.84375 28.2625 9.8625 28.2625 13.5875C28.2625 15.95 26.7625 17.6563 25.2 19.2313L19.0813 25.0187C18.6875 25.2625 18.2375 25.1 18.2313 24.6562V20.15C18.2313 18.8437 17.175 17.7875 15.8688 17.7875L15.875 15.8687Z" fill="#C6002B"/>
</g>
<defs>
<clipPath id="clip0_1_557">
<rect width="32" height="32" fill="white"/>
</clipPath>
</defs>
</svg>
