<svg width="32" height="32" viewBox="0 0 32 32" fill="none" xmlns="http://www.w3.org/2000/svg">
<rect width="32" height="32" fill="white"/>
<path fill-rule="evenodd" clip-rule="evenodd" d="M23.4667 19.3333V20.2667C23.4664 20.8658 23.4128 21.4637 23.3067 22.0533C23.2549 22.3539 23.1432 22.6409 22.9783 22.8975C22.8134 23.154 22.5986 23.3748 22.3467 23.5467H22.32C21.7884 23.9501 21.1467 24.1826 20.48 24.2133L19.9734 24.2667C19.5758 24.291 19.178 24.2217 18.8121 24.0642C18.4462 23.9067 18.1223 23.6655 17.8667 23.36C17.6007 23.0378 17.4258 22.6502 17.3602 22.2376C17.2945 21.8249 17.3405 21.4022 17.4934 21.0133V20.9867C17.633 20.6063 17.8642 20.2662 18.1665 19.9965C18.4688 19.7267 18.833 19.5356 19.2267 19.44L21.2267 18.9067C21.4783 18.8467 21.7022 18.7034 21.8619 18.5001C22.0217 18.2967 22.108 18.0453 22.1067 17.7867V16.4267V10.6933C22.1085 10.6271 22.095 10.5614 22.0673 10.5013C22.0395 10.4411 21.9983 10.3882 21.9467 10.3467C21.8937 10.3076 21.833 10.2802 21.7687 10.2664C21.7043 10.2526 21.6377 10.2527 21.5734 10.2667L13.04 12C12.8888 12.0242 12.7514 12.1023 12.6534 12.22C12.5553 12.3377 12.5032 12.4869 12.5067 12.64V21.76V22.4267C12.5064 23.0258 12.4528 23.6237 12.3467 24.2133C12.2949 24.5139 12.1832 24.801 12.0183 25.0575C11.8534 25.314 11.6386 25.5348 11.3867 25.7067H11.36C10.8284 26.1101 10.1867 26.3426 9.52003 26.3733L9.04003 26.4C8.64242 26.4244 8.24464 26.355 7.87873 26.1976C7.51282 26.0401 7.18901 25.7989 6.93337 25.4933C6.66738 25.1711 6.49249 24.7835 6.42684 24.3709C6.36119 23.9583 6.40718 23.5356 6.56003 23.1467V23.12C6.69967 22.7397 6.93087 22.3996 7.23319 22.1298C7.5355 21.86 7.89963 21.6689 8.29337 21.5733L10.2934 21.04C10.5449 20.9801 10.7688 20.8368 10.9286 20.6334C11.0884 20.4301 11.1746 20.1786 11.1734 19.92V18.56V7.97335C11.1763 7.74583 11.2575 7.52626 11.4031 7.35147C11.5488 7.17667 11.7501 7.05729 11.9734 7.01335L22.6667 5.06668C22.8633 5.04363 23.0616 5.09086 23.2267 5.20001C23.3016 5.26152 23.362 5.33885 23.4035 5.42645C23.445 5.51405 23.4666 5.60975 23.4667 5.70668V19.3333Z" fill="#BB58BB"/>
<path fill-rule="evenodd" clip-rule="evenodd" d="M23.4667 19.3333V20.2667C23.4664 20.8658 23.4128 21.4637 23.3067 22.0533C23.2549 22.3539 23.1432 22.6409 22.9783 22.8975C22.8134 23.154 22.5986 23.3748 22.3467 23.5467H22.32C21.7884 23.9501 21.1467 24.1826 20.48 24.2133L19.9734 24.2667C19.5758 24.291 19.178 24.2217 18.8121 24.0642C18.4462 23.9067 18.1223 23.6655 17.8667 23.36C17.6007 23.0378 17.4258 22.6502 17.3602 22.2376C17.2945 21.8249 17.3405 21.4022 17.4934 21.0133V20.9867C17.633 20.6063 17.8642 20.2662 18.1665 19.9965C18.4688 19.7267 18.833 19.5356 19.2267 19.44L21.2267 18.9067C21.4783 18.8467 21.7022 18.7034 21.8619 18.5001C22.0217 18.2967 22.108 18.0453 22.1067 17.7867V16.4267V10.6933C22.1085 10.6271 22.095 10.5614 22.0673 10.5013C22.0395 10.4411 21.9983 10.3882 21.9467 10.3467C21.8937 10.3076 21.833 10.2802 21.7687 10.2664C21.7043 10.2526 21.6377 10.2527 21.5734 10.2667L13.04 12C12.8888 12.0242 12.7514 12.1023 12.6534 12.22C12.5553 12.3377 12.5032 12.4869 12.5067 12.64V21.76V22.4267C12.5064 23.0258 12.4528 23.6237 12.3467 24.2133C12.2949 24.5139 12.1832 24.801 12.0183 25.0575C11.8534 25.314 11.6386 25.5348 11.3867 25.7067H11.36C10.8284 26.1101 10.1867 26.3426 9.52003 26.3733L9.04003 26.4C8.64242 26.4244 8.24464 26.355 7.87873 26.1976C7.51282 26.0401 7.18901 25.7989 6.93337 25.4933C6.66738 25.1711 6.49249 24.7835 6.42684 24.3709C6.36119 23.9583 6.40718 23.5356 6.56003 23.1467V23.12C6.69967 22.7397 6.93087 22.3996 7.23319 22.1298C7.5355 21.86 7.89963 21.6689 8.29337 21.5733L10.2934 21.04C10.5449 20.9801 10.7688 20.8368 10.9286 20.6334C11.0884 20.4301 11.1746 20.1786 11.1734 19.92V18.56V7.97335C11.1763 7.74583 11.2575 7.52626 11.4031 7.35147C11.5488 7.17667 11.7501 7.05729 11.9734 7.01335L22.6667 5.06668C22.8633 5.04363 23.0616 5.09086 23.2267 5.20001C23.3016 5.26152 23.362 5.33885 23.4035 5.42645C23.445 5.51405 23.4666 5.60975 23.4667 5.70668V19.3333Z" fill="url(#paint0_radial_1_411)"/>
<path fill-rule="evenodd" clip-rule="evenodd" d="M23.4667 19.3333V20.2667C23.4664 20.8658 23.4128 21.4637 23.3067 22.0533C23.2549 22.3539 23.1432 22.6409 22.9783 22.8975C22.8134 23.154 22.5986 23.3748 22.3467 23.5467H22.32C21.7884 23.9501 21.1467 24.1826 20.48 24.2133L19.9734 24.2667C19.5758 24.291 19.178 24.2217 18.8121 24.0642C18.4462 23.9067 18.1223 23.6655 17.8667 23.36C17.6007 23.0378 17.4258 22.6502 17.3602 22.2376C17.2945 21.8249 17.3405 21.4022 17.4934 21.0133V20.9867C17.633 20.6063 17.8642 20.2662 18.1665 19.9965C18.4688 19.7267 18.833 19.5356 19.2267 19.44L21.2267 18.9067C21.4783 18.8467 21.7022 18.7034 21.8619 18.5001C22.0217 18.2967 22.108 18.0453 22.1067 17.7867V16.4267V10.6933C22.1085 10.6271 22.095 10.5614 22.0673 10.5013C22.0395 10.4411 21.9983 10.3882 21.9467 10.3467C21.8937 10.3076 21.833 10.2802 21.7687 10.2664C21.7043 10.2526 21.6377 10.2527 21.5734 10.2667L13.04 12C12.8888 12.0242 12.7514 12.1023 12.6534 12.22C12.5553 12.3377 12.5032 12.4869 12.5067 12.64V21.76V22.4267C12.5064 23.0258 12.4528 23.6237 12.3467 24.2133C12.2949 24.5139 12.1832 24.801 12.0183 25.0575C11.8534 25.314 11.6386 25.5348 11.3867 25.7067H11.36C10.8284 26.1101 10.1867 26.3426 9.52003 26.3733L9.04003 26.4C8.64242 26.4244 8.24464 26.355 7.87873 26.1976C7.51282 26.0401 7.18901 25.7989 6.93337 25.4933C6.66738 25.1711 6.49249 24.7835 6.42684 24.3709C6.36119 23.9583 6.40718 23.5356 6.56003 23.1467V23.12C6.69967 22.7397 6.93087 22.3996 7.23319 22.1298C7.5355 21.86 7.89963 21.6689 8.29337 21.5733L10.2934 21.04C10.5449 20.9801 10.7688 20.8368 10.9286 20.6334C11.0884 20.4301 11.1746 20.1786 11.1734 19.92V18.56V7.97335C11.1763 7.74583 11.2575 7.52626 11.4031 7.35147C11.5488 7.17667 11.7501 7.05729 11.9734 7.01335L22.6667 5.06668C22.8633 5.04363 23.0616 5.09086 23.2267 5.20001C23.3016 5.26152 23.362 5.33885 23.4035 5.42645C23.445 5.51405 23.4666 5.60975 23.4667 5.70668V19.3333Z" fill="url(#paint1_radial_1_411)"/>
<path fill-rule="evenodd" clip-rule="evenodd" d="M23.4667 19.3333V20.2667C23.4664 20.8658 23.4128 21.4637 23.3067 22.0533C23.2549 22.3539 23.1432 22.6409 22.9783 22.8975C22.8134 23.154 22.5986 23.3748 22.3467 23.5467H22.32C21.7884 23.9501 21.1467 24.1826 20.48 24.2133L19.9734 24.2667C19.5758 24.291 19.178 24.2217 18.8121 24.0642C18.4462 23.9067 18.1223 23.6655 17.8667 23.36C17.6007 23.0378 17.4258 22.6502 17.3602 22.2376C17.2945 21.8249 17.3405 21.4022 17.4934 21.0133V20.9867C17.633 20.6063 17.8642 20.2662 18.1665 19.9965C18.4688 19.7267 18.833 19.5356 19.2267 19.44L21.2267 18.9067C21.4783 18.8467 21.7022 18.7034 21.8619 18.5001C22.0217 18.2967 22.108 18.0453 22.1067 17.7867V16.4267V10.6933C22.1085 10.6271 22.095 10.5614 22.0673 10.5013C22.0395 10.4411 21.9983 10.3882 21.9467 10.3467C21.8937 10.3076 21.833 10.2802 21.7687 10.2664C21.7043 10.2526 21.6377 10.2527 21.5734 10.2667L13.04 12C12.8888 12.0242 12.7514 12.1023 12.6534 12.22C12.5553 12.3377 12.5032 12.4869 12.5067 12.64V21.76V22.4267C12.5064 23.0258 12.4528 23.6237 12.3467 24.2133C12.2949 24.5139 12.1832 24.801 12.0183 25.0575C11.8534 25.314 11.6386 25.5348 11.3867 25.7067H11.36C10.8284 26.1101 10.1867 26.3426 9.52003 26.3733L9.04003 26.4C8.64242 26.4244 8.24464 26.355 7.87873 26.1976C7.51282 26.0401 7.18901 25.7989 6.93337 25.4933C6.66738 25.1711 6.49249 24.7835 6.42684 24.3709C6.36119 23.9583 6.40718 23.5356 6.56003 23.1467V23.12C6.69967 22.7397 6.93087 22.3996 7.23319 22.1298C7.5355 21.86 7.89963 21.6689 8.29337 21.5733L10.2934 21.04C10.5449 20.9801 10.7688 20.8368 10.9286 20.6334C11.0884 20.4301 11.1746 20.1786 11.1734 19.92V18.56V7.97335C11.1763 7.74583 11.2575 7.52626 11.4031 7.35147C11.5488 7.17667 11.7501 7.05729 11.9734 7.01335L22.6667 5.06668C22.8633 5.04363 23.0616 5.09086 23.2267 5.20001C23.3016 5.26152 23.362 5.33885 23.4035 5.42645C23.445 5.51405 23.4666 5.60975 23.4667 5.70668V19.3333Z" fill="url(#paint2_linear_1_411)"/>
<defs>
<radialGradient id="paint0_radial_1_411" cx="0" cy="0" r="1" gradientUnits="userSpaceOnUse" gradientTransform="translate(10.032 24.1036) rotate(90) scale(13.4968 13.4968)">
<stop stop-color="#7470F9"/>
<stop offset="1" stop-color="#7A70FE" stop-opacity="0"/>
</radialGradient>
<radialGradient id="paint1_radial_1_411" cx="0" cy="0" r="1" gradientUnits="userSpaceOnUse" gradientTransform="translate(20.6803 21.023) rotate(-105.538) scale(10.8944 10.8944)">
<stop stop-color="#4CA3F8"/>
<stop offset="0.362" stop-color="#4CA4F7"/>
<stop offset="1" stop-color="#4AA2F9" stop-opacity="0"/>
</radialGradient>
<linearGradient id="paint2_linear_1_411" x1="12.8805" y1="9.16907" x2="17.5805" y2="17.7016" gradientUnits="userSpaceOnUse">
<stop stop-color="#FF6380"/>
<stop offset="1" stop-color="#F65E79" stop-opacity="0"/>
</linearGradient>
</defs>
</svg>
