<svg width="32" height="32" viewBox="0 0 32 32" fill="none" xmlns="http://www.w3.org/2000/svg">
<rect width="32" height="32" fill="#1ECCB0"/>
<path d="M14.3636 24.1818C13.8181 23.2727 13.0909 22.4545 12.1818 21.9091C11.2727 21.3636 10.3636 20.9091 9.27269 20.6364C9.18178 20.6364 9.09088 20.6364 8.99997 20.7273C8.90906 20.8182 8.90906 20.9091 8.90906 21C8.90906 21.0909 8.90906 21.1818 8.99997 21.1818C10.1818 22.9091 12 24.1818 14 24.7273H14.0909C14.1818 24.7273 14.1818 24.7273 14.2727 24.7273C14.2727 24.7273 14.3636 24.7273 14.3636 24.6364L14.4545 24.5454C14.4545 24.5454 14.4545 24.4545 14.4545 24.3636C14.4545 24.2727 14.4545 24.1818 14.3636 24.1818Z" fill="white"/>
<path d="M25.0909 13.4545V13.3636C24.6364 11.7273 23.7273 10.2727 22.4545 9.18182C21.1818 8.09091 19.7273 7.27273 18.0909 7H18C17.9091 7 17.8182 7 17.7273 7.09091C17.6364 7.18182 17.6364 7.27273 17.6364 7.36364V7.45455C18.4545 12.4545 17.9091 17.5455 16.0909 22.2727C16.0909 22.3636 16 22.3636 16 22.4545C16 22.5455 15.9091 22.5455 15.8182 22.5455C15.7273 22.5455 15.7273 22.5455 15.6364 22.5455C15.6364 22.5455 15.5455 22.5455 15.5455 22.4545L15.4545 22.3636C15.4545 22.3636 15.4545 22.2727 15.4545 22.1818C15.4545 22.1818 15.3636 21.5455 15.3636 21.2727C14.8182 16.9091 13.5455 12.7273 11.4545 8.81818C11.4545 8.72727 11.3636 8.72727 11.3636 8.72727L11.2727 8.63636C11.2727 8.63636 11.1818 8.63636 11.0909 8.63636C11 8.63636 11 8.63636 10.9091 8.63636C9.63636 9.63636 8.63636 10.9091 8 12.4545C8 12.5455 8 12.6364 8 12.7273C8 12.8182 8.09091 12.9091 8.18182 12.9091C10.1818 14.1818 11.8182 15.8182 13 17.9091C14.1818 19.9091 14.8182 22.2727 14.9091 24.5455C14.9091 24.6364 14.9091 24.7273 15 24.8182C15.0909 24.9091 15.1818 24.9091 15.1818 24.9091C15.3636 24.9091 15.6364 25 15.8182 25C15.9091 25 16 25 16.0909 24.9091C16.1818 24.8182 16.1818 24.8182 16.1818 24.7273C16.6364 22.3636 17.6364 20.0909 19.1818 18.1818C20.7273 16.2727 22.6364 14.8182 24.9091 13.8182C25 13.8182 25 13.7273 25.0909 13.7273C25.0909 13.5455 25.0909 13.5455 25.0909 13.4545Z" fill="white"/>
<path d="M24.2728 20.3636C24.2728 20.2727 24.2728 20.1818 24.1819 20.0909C24.091 20 24.0001 20 23.9092 20H23.8183C21.0001 20.6364 18.4546 22.1818 16.6364 24.3636C16.5455 24.4545 16.5455 24.5455 16.5455 24.6364C16.5455 24.7273 16.5455 24.8182 16.6364 24.9091C16.7273 25 16.8183 25 16.9092 25C18.3637 24.9091 19.8183 24.4545 21.091 23.7273C22.3637 23 23.4546 21.9091 24.1819 20.6364C24.2728 20.5455 24.2728 20.4545 24.2728 20.3636Z" fill="white"/>
</svg>
