<svg width="32" height="32" viewBox="0 0 32 32" fill="none" xmlns="http://www.w3.org/2000/svg">
<rect width="32" height="32" fill="#00CB5E"/>
<path fill-rule="evenodd" clip-rule="evenodd" d="M23.0093 24.4069C21.0939 25.8756 18.7469 26.67 16.3333 26.6666C10.2624 26.6666 5.33333 21.7376 5.33333 15.6667C5.33333 9.5957 10.2624 4.66666 16.3333 4.66666C22.4043 4.66666 27.3333 9.5957 27.3333 15.6667C27.3333 18.1762 26.491 20.4909 25.0736 22.3426L25.7619 25.0952L23.0093 24.4069Z" fill="#1A1A1A"/>
<path d="M16.3337 21.4288C19.5159 21.4288 22.0956 18.8491 22.0956 15.6669C22.0956 12.4847 19.5159 9.90503 16.3337 9.90503C13.1515 9.90503 10.5718 12.4847 10.5718 15.6669C10.5718 18.8491 13.1515 21.4288 16.3337 21.4288Z" fill="white"/>
<path d="M16.334 17.2382C17.2019 17.2382 17.9055 16.5346 17.9055 15.6667C17.9055 14.7988 17.2019 14.0952 16.334 14.0952C15.4661 14.0952 14.7625 14.7988 14.7625 15.6667C14.7625 16.5346 15.4661 17.2382 16.334 17.2382Z" fill="#1A1A1A"/>
</svg>
