<svg width="32" height="32" viewBox="0 0 32 32" fill="none" xmlns="http://www.w3.org/2000/svg">
<rect width="32" height="32" fill="#09CEF6"/>
<path d="M20.7243 13C18.996 13 18.2235 14.0718 18.2235 15.5039C18.2235 16.936 19.0113 18.0078 20.7243 18.0078C22.4374 18.0078 23.2282 16.765 23.2282 15.5039C23.2282 14.2428 22.4526 13 20.7243 13ZM20.7243 17.0032C19.7838 17.0032 19.3899 16.2062 19.3899 15.5039C19.3899 14.8016 19.8205 14.0199 20.7243 14.0199C21.6251 14.0199 22.0587 14.7985 22.0587 15.5039C22.0587 16.2062 21.6648 17.0032 20.7243 17.0032ZM8.3849 13.1649H7.5635C7.19402 13.1649 7.01691 13.2596 6.80622 13.4855L5.16646 15.1619V13.3115C5.16646 13.2412 5.12371 13.1771 5.03821 13.1771H4.13436C4.04275 13.1741 4 13.2321 4 13.3115V17.733C4 17.791 4.04886 17.8368 4.10382 17.8368H5.05958C5.1176 17.8368 5.16646 17.791 5.16646 17.733V15.8429L6.85507 17.6506C7.00164 17.7971 7.23066 17.8643 7.51464 17.8643H8.3391C8.61087 17.8643 8.5101 17.7086 8.5101 17.7086L6.39399 15.5192L8.51621 13.3206C8.51926 13.3206 8.65667 13.1649 8.3849 13.1649ZM13.2462 13.1649H12.4248C12.0522 13.1649 11.8782 13.2596 11.6644 13.4886L10.0277 15.165V13.3115C10.0277 13.2412 9.98497 13.1771 9.89947 13.1771H8.99562C8.90706 13.1771 8.86126 13.2321 8.86126 13.3115V17.733C8.86126 17.791 8.91012 17.8368 8.96508 17.8368H9.92084C9.97886 17.8368 10.0277 17.791 10.0277 17.733V15.8429L11.7163 17.6506C11.8629 17.7971 12.0919 17.8643 12.3759 17.8643H13.2004C13.4721 17.8643 13.3714 17.7086 13.3714 17.7086L11.2552 15.5161L13.3775 13.3176C13.3775 13.3206 13.5179 13.1649 13.2462 13.1649V13.1649Z" fill="white"/>
<path d="M27.9887 17.6964L26.3703 15.4612L27.8788 13.3206C27.8788 13.3206 28.0192 13.1649 27.7444 13.1649H26.9535C26.6085 13.1649 26.4589 13.168 26.297 13.4061L25.5703 14.5298L24.8191 13.3909C24.6481 13.1832 24.4496 13.1649 24.0985 13.1649H23.3809C23.1061 13.1649 23.2404 13.3206 23.2404 13.3206L24.7886 15.4612L23.1397 17.7086C23.1397 17.7086 23.0389 17.8643 23.3107 17.8643H24.0405C24.2573 17.8643 24.5534 17.8979 24.7214 17.675C24.7244 17.6719 25.5672 16.4108 25.5672 16.4108C25.5672 16.4108 26.3978 17.6506 26.4008 17.6536C26.5688 17.8826 26.8497 17.8643 27.0665 17.8643H27.7902C28.0711 17.8674 27.9887 17.6964 27.9887 17.6964V17.6964ZM13.9698 13.1466H16.1867C17.2219 13.1466 17.6494 13.7634 17.6494 14.3466C17.6494 14.826 17.3043 15.226 16.9043 15.4093C17.4356 15.62 17.8265 15.9223 17.8265 16.6337C17.8265 17.4185 17.2646 17.8613 16.3027 17.8613H13.9454C13.8568 17.8613 13.7958 17.7971 13.7958 17.7055V13.3206C13.7988 13.2107 13.8691 13.1466 13.9698 13.1466V13.1466ZM15.7073 15.0612C16.1653 15.0612 16.4096 14.9512 16.4096 14.5512V14.5298C16.4096 14.2214 16.1867 14.0718 15.6737 14.0718L15.0233 14.084V15.0642H15.7073V15.0612ZM15.7959 16.9818C16.3394 16.9818 16.5409 16.8017 16.5409 16.4536V16.4414C16.5409 16.0627 16.2966 15.8826 15.8325 15.8826H15.0233V16.9605L15.7959 16.9818V16.9818Z" fill="white"/>
</svg>
