<svg width="32" height="32" viewBox="0 0 32 32" fill="none" xmlns="http://www.w3.org/2000/svg">
<rect width="32" height="32" fill="white"/>
<path d="M24.4565 19.5837C24.4565 18.9453 24.3163 18.3224 24.0672 17.7462C23.1017 14.7564 19.9717 13.6819 18.6325 11.1748C20.2832 11.5953 21.8715 11.0347 22.3076 9.80447C22.7124 8.68328 21.9805 7.35966 20.6569 6.6122C20.6569 6.6122 19.053 5.75573 17.3245 6.28518C14.9264 7.03264 15.4558 9.07258 15.7984 9.91347C16.3123 11.1592 17.4023 12.623 17.9785 13.5262C17.2622 13.4016 16.5303 13.3238 15.7517 13.3393C14.1011 13.3549 12.5594 13.7131 11.2358 14.3048C10.3171 14.7097 9.52288 15.2547 8.86885 15.862C8.72871 16.0022 8.57299 16.1579 8.44841 16.298L8.38612 16.3603L8.37055 16.3759C7.54523 17.3569 7.07807 18.4937 7.09364 19.7239C7.12478 23.1964 11.0334 25.9838 15.8296 25.9371C17.4179 25.9216 18.9128 25.5945 20.1897 25.034C20.2053 25.034 20.2209 25.0184 20.2365 25.0184C20.2832 25.0028 20.3299 24.9717 20.3766 24.9561L20.47 24.9094C20.4856 24.8938 20.5168 24.8938 20.5323 24.8782C21.4044 24.4578 22.1674 23.9283 22.7903 23.3366V23.321C23.8492 22.2777 24.4565 20.9852 24.4565 19.5837V19.5837Z" fill="#EF3C25"/>
<path d="M24.472 19.5837C24.5032 23.0874 20.6102 25.9683 15.7984 25.9994C10.9711 26.0461 7.03133 23.2432 7.00019 19.7394C6.96904 16.2357 10.8465 13.3549 15.6738 13.3238C20.5012 13.277 24.4409 16.08 24.472 19.5837Z" fill="#EF3C25"/>
<path d="M7.03131 19.7239C7.06246 23.2276 11.0022 25.9839 15.8295 25.9839C18.6169 25.9839 21.2175 24.9405 22.8058 23.3833C23.382 20.4713 22.5255 17.3414 20.252 15.1145C19.5668 14.4449 18.8194 13.9155 18.0096 13.4951C17.2777 13.3705 16.4991 13.2926 15.7205 13.3082C10.8932 13.3549 7.00017 16.2202 7.03131 19.7239Z" fill="#FAAC1B"/>
<path d="M9.67853 17.6528C8.26147 19.101 7.77874 21.0164 8.18361 22.8694C9.70968 24.7537 12.5282 26.0306 15.7672 25.9994C16.4524 25.9994 17.122 25.9527 17.7604 25.8281C17.8227 25.7814 17.9006 25.7347 17.9473 25.688C20.1741 23.4145 20.0962 19.8173 17.8227 17.5905C15.5648 15.3481 11.9053 15.3793 9.67853 17.6528V17.6528Z" fill="#E86F25"/>
<path d="M12.17 16.1112C11.625 18.0577 12.1389 20.2533 13.6805 21.7638C15.2377 23.2899 17.4178 23.7571 19.3643 23.1809C19.9094 21.2188 19.3955 19.0387 17.8538 17.5282C16.2966 16.0022 14.101 15.535 12.17 16.1112Z" fill="#B3529F"/>
<path d="M11.3448 24.1619C9.05571 21.9195 8.19925 18.774 8.79098 15.8464C7.6698 16.9209 7.0002 18.2757 7.01577 19.7239C7.04691 22.6826 9.99003 25.1897 13.774 25.8437C12.9487 25.4388 12.0455 24.8471 11.3448 24.1619ZM22.3854 9.92904C21.9027 11.2994 20.0029 11.8755 18.1654 11.2371C16.3123 10.5831 15.2222 8.948 15.705 7.57766C16.1877 6.20732 18.0875 5.63115 19.925 6.28518C21.7625 6.92363 22.8681 8.5587 22.3854 9.92904V9.92904Z" fill="#EF3C25"/>
<path d="M21.4043 7.65553C21.2174 7.25065 20.9527 6.90807 20.6569 6.6122C20.4233 6.47205 20.1741 6.36305 19.8938 6.26961C18.0407 5.61559 16.1565 6.19175 15.6738 7.56209C15.1911 8.93244 16.2967 10.5675 18.1342 11.2215C19.2709 11.6264 20.4077 11.5641 21.2486 11.1281C21.8559 10.1003 21.9493 8.80786 21.4043 7.65553Z" fill="#FAAC1B"/>
<path d="M17.0597 7.23507C16.25 7.62438 15.7828 8.43412 15.7828 9.27501C16.1721 10.1003 17.013 10.8322 18.1031 11.2215C18.2899 11.2838 18.4768 11.3461 18.6637 11.3772C18.7727 11.3461 18.8661 11.2994 18.9595 11.2527C20.0652 10.7232 20.5479 9.38402 20.0184 8.2784C19.5046 7.17279 18.1809 6.70562 17.0597 7.23507V7.23507Z" fill="#E86F25"/>
<path d="M19.8782 10.5364C20.3142 9.89791 20.4233 9.05702 20.0651 8.29399C19.7069 7.54653 18.975 7.09494 18.212 7.03265C17.776 7.67111 17.667 8.512 18.0252 9.27503C18.3833 10.0225 19.0996 10.4741 19.8782 10.5364V10.5364Z" fill="#B3529F"/>
<path d="M16.6549 9.91347C16.0788 8.71442 16.2189 7.34408 16.8885 6.30075C16.2968 6.56548 15.8607 7.00149 15.6583 7.57766C15.2534 8.72999 15.9698 10.0692 17.3089 10.8634C17.0442 10.5831 16.8262 10.2716 16.6549 9.91347V9.91347Z" fill="#EF3C25"/>
</svg>
