<svg width="32" height="32" viewBox="0 0 32 32" fill="none" xmlns="http://www.w3.org/2000/svg">
<rect width="32" height="32" fill="#ED2F3D"/>
<rect width="19.6364" height="13.0909" transform="translate(6.18188 9.18182)" fill="white"/>
<path d="M24.7383 20.2886C24.7383 21.0537 24.3758 21.4564 23.5705 21.4564C23.1678 21.4564 22.7248 21.4564 22.2819 21.4564C21.5973 21.4564 21.1141 21.0537 21.1141 20.2886V13.1208C21.1141 12.3154 20.5503 11.7517 19.745 11.7517H12.255C11.4497 11.7517 10.8859 12.3154 10.8859 13.1208V20.2886C10.8859 20.8926 10.3221 21.4564 9.71812 21.4564C9.11409 21.4564 8.87248 21.4564 8.42953 21.4564C7.8255 21.4161 7.26175 20.8926 7.26175 20.2886V11.7919C7.26175 10.5839 7.98658 9.85906 9.19463 9.85906H22.7651C23.9732 9.85906 24.698 10.5839 24.698 11.7919V20.2886H24.7383ZM17.8121 20.4497C17.8121 21.0537 17.4094 21.4564 16.8054 21.4564C16.2013 21.4564 15.4765 21.4564 15.1946 21.4564C14.5906 21.4564 14.1879 21.0537 14.1879 20.4497V14.0067C14.1879 13.4027 14.5906 13 15.1946 13H16.8054C17.4094 13 17.8121 13.4027 17.8121 14.0067V20.4497ZM25.4228 7H6.53691C5.12752 7 4 8.08725 4 9.53691V21.8188C4 23.2282 5.12752 24.3557 6.53691 24.3557H25.4228C26.8725 24.3557 28 23.2282 28 21.8591V9.49664C28 8.12752 26.8725 7 25.4228 7Z" fill="#ED2F3D"/>
</svg>
