<svg width="32" height="32" viewBox="0 0 32 32" fill="none" xmlns="http://www.w3.org/2000/svg">
<g clip-path="url(#clip0_1_417)">
<path d="M31.9906 0H0.009375C0.00419733 0 0 0.00419733 0 0.009375V31.9906C0 31.9958 0.00419733 32 0.009375 32H31.9906C31.9958 32 32 31.9958 32 31.9906V0.009375C32 0.00419733 31.9958 0 31.9906 0Z" fill="white"/>
<g clip-path="url(#clip1_1_417)">
<path d="M7.11161 18.2914C8.26091 28.8277 23.7373 28.6216 24.865 18.3553L24.8776 18.2815C27.4345 16.7209 27.4435 13.0498 24.8857 11.4802V8.50663C24.1485 8.52626 23.4162 8.6332 22.7041 8.82523C19.132 4.89223 12.8824 4.89223 9.31031 8.82973C8.59058 8.63713 7.85094 8.52871 7.10621 8.50663V11.4874C4.56371 13.0561 4.56371 16.693 7.11161 18.2914ZM11.014 9.46693C13.8193 6.88663 18.1708 6.88303 20.9842 9.45883C20.6746 9.60913 20.3785 9.77203 20.0869 9.95293C18.8194 9.30692 17.4167 8.97053 15.9941 8.97131C14.5714 8.97209 13.1692 9.31003 11.9023 9.95742C11.6149 9.77868 11.3184 9.61496 11.014 9.46693V9.46693ZM8.85311 10.42C9.96428 10.7145 10.9976 11.2483 11.8807 11.9842C13.0886 11.1459 14.5236 10.6962 15.9939 10.6954C17.4642 10.6946 18.8997 11.1427 20.1085 11.9797V11.9806C20.9931 11.2467 22.0277 10.7155 23.1397 10.4245V17.3545C23.1397 26.7856 8.85311 26.7091 8.85311 17.3671V10.42V10.42Z" fill="#334497"/>
<path d="M11.7277 19.294C11.9194 19.4011 12.3892 19.5514 12.8383 19.5739C13.9399 19.6216 15.5077 19.6378 15.5077 19.6378C14.9326 17.0845 14.0398 17.2258 10.5856 17.2564H10.5865C10.6207 17.6083 10.582 18.6451 11.7277 19.294V19.294Z" fill="#68B951"/>
<path d="M17.6524 22.2469C16.5716 22.552 15.4275 22.552 14.3467 22.2469C14.3467 22.2469 14.2207 22.3108 14.0677 22.5304C13.9462 22.7068 13.9066 22.9435 13.9066 22.9435C14.5421 23.3152 15.2651 23.5111 16.0014 23.5111C16.7376 23.5111 17.4606 23.3152 18.0961 22.9435C18.0916 22.939 18.0835 22.7707 17.9521 22.561C17.8135 22.3333 17.6524 22.2469 17.6524 22.2469Z" fill="#334497"/>
<path d="M19.159 19.5694C19.6036 19.5487 20.0779 19.3966 20.2696 19.2895C21.4153 18.6406 21.3766 17.6047 21.4108 17.2519C17.9476 17.2267 17.0593 17.0845 16.4887 19.6342H16.4896C16.4887 19.6333 18.0574 19.6207 19.159 19.5694V19.5694Z" fill="#68B951"/>
<path d="M15.9964 21.8743C16.8155 21.6032 17.5652 21.1556 18.1924 20.563H13.8058C14.4306 21.156 15.1786 21.6037 15.9964 21.8743V21.8743Z" fill="#334497"/>
</g>
</g>
<defs>
<clipPath id="clip0_1_417">
<rect width="32" height="32" fill="white"/>
</clipPath>
<clipPath id="clip1_1_417">
<rect width="21.6" height="21.6" fill="white" transform="translate(5.20001 5.20001)"/>
</clipPath>
</defs>
</svg>
