<svg width="32" height="32" viewBox="0 0 32 32" fill="none" xmlns="http://www.w3.org/2000/svg">
<rect width="32" height="32" fill="#EA2000"/>
<path fill-rule="evenodd" clip-rule="evenodd" d="M19.5117 13.2728C19.4899 13.2053 19.4678 13.1367 19.4455 13.0664C19.6867 13.1223 19.9049 13.1957 20.1154 13.2907C20.9727 13.6771 21.667 14.2723 22.2408 15.0047C22.91 15.8589 23.2336 16.848 23.2876 17.9255C23.321 18.5926 23.2486 19.2533 23.0487 19.8907C22.5382 21.5182 21.5279 22.7569 20.0627 23.6176C18.8916 24.3056 17.6115 24.6102 16.2578 24.6392C15.3827 24.658 14.5322 24.5374 13.7058 24.2506C12.3037 23.764 11.1449 22.9304 10.224 21.7713C9.20124 20.484 8.62415 19.018 8.50485 17.3752C8.44767 16.5876 8.50876 15.809 8.69162 15.041C9.00999 13.7034 9.64195 12.5319 10.5755 11.5239C11.4071 10.6261 12.3944 9.95625 13.5396 9.52147C13.7628 9.43678 13.9684 9.32298 14.1405 9.15518C14.7847 8.52742 14.528 7.67887 14.0304 7.33907C13.6198 7.05878 13.1688 7.03576 12.7163 7.20689C10.573 8.01736 8.87911 9.39204 7.63357 11.3121C6.68223 12.7789 6.14828 14.3913 6.02406 16.1357C5.9676 16.9281 6.01204 17.7177 6.14133 18.5011C6.34431 19.731 6.75983 20.8864 7.3805 21.9671C8.2719 23.5196 9.47661 24.7695 11.0114 25.6939C12.3538 26.5024 13.8093 26.9657 15.3733 27.0766C16.0122 27.1219 16.6516 27.1045 17.2883 27.0336C18.0594 26.9477 18.8145 26.7861 19.5488 26.5328C21.8789 25.7288 23.6452 24.2545 24.8157 22.0815C25.3455 21.098 25.6611 20.0462 25.7485 18.9295C25.8004 18.268 25.7818 17.6091 25.6821 16.9524C25.5509 16.0882 25.2781 15.2723 24.8606 14.5051C24.2988 13.4731 23.5251 12.6264 22.5904 11.9212C21.9227 11.4172 21.2022 11.0179 20.393 10.7877C19.876 10.6406 19.3497 10.5533 18.8134 10.5238C18.7728 10.5215 18.7503 10.5126 18.7383 10.467C18.6901 10.2846 18.6406 10.1025 18.5911 9.92041C18.5276 9.68651 18.464 9.45263 18.4031 9.21802C18.3307 8.93946 18.3021 8.65815 18.3949 8.37656C18.5093 8.02909 18.7183 7.77428 19.0872 7.68567C19.3316 7.62703 19.5757 7.6515 19.8163 7.71897C20.1922 7.82437 20.515 8.02778 20.8225 8.26044C21.1697 8.52307 21.5608 8.6237 21.9882 8.54653C22.4047 8.47124 22.7038 8.2396 22.8073 7.81742C22.953 7.2231 22.7943 6.70609 22.3245 6.31403C21.5606 5.67642 20.6804 5.30057 19.6831 5.21544C19.2665 5.17997 18.8544 5.2027 18.4496 5.31447C17.7056 5.52006 17.0772 5.91299 16.5785 6.50065C15.8793 7.3243 15.6093 8.2645 15.8625 9.32964C15.9244 9.58949 15.9971 9.84672 16.0697 10.1039C16.1051 10.2292 16.1405 10.3545 16.1747 10.4801C16.194 10.5509 16.2121 10.6221 16.2302 10.6931C16.2391 10.7282 16.248 10.7632 16.2571 10.7981C16.251 10.8008 16.2464 10.8029 16.2426 10.8047C16.2366 10.8075 16.2327 10.8093 16.2287 10.8106C16.2177 10.814 16.2067 10.8172 16.1957 10.8204C16.1905 10.8219 16.1853 10.8234 16.1802 10.8249C15.24 11.1055 14.3927 11.5552 13.6645 12.2173C12.8805 12.93 12.3453 13.7958 12.0793 14.8242C11.8695 15.6354 11.8542 16.4561 11.9843 17.2789C12.1236 18.1596 12.4818 18.9465 13.0873 19.6041C14.1243 20.7303 15.4052 21.1749 16.9176 20.9072C17.7502 20.7598 18.4674 20.3741 19.0724 19.7852C19.659 19.2143 20.0571 18.5331 20.2291 17.7293C20.3885 16.9846 20.3517 16.2397 20.1655 15.5069C20.0531 15.064 19.9218 14.6259 19.7906 14.1879C19.7428 14.0283 19.695 13.8686 19.6481 13.7088C19.6057 13.5645 19.5595 13.4213 19.5117 13.2728ZM16.8923 13.168C16.8953 13.1686 16.8991 13.1693 16.9039 13.1699L16.9041 13.1701C16.9218 13.2256 16.9398 13.2815 16.958 13.3376C16.9963 13.4559 17.0349 13.5753 17.071 13.6955C17.1357 13.9114 17.2012 14.1272 17.2667 14.3429C17.4426 14.9223 17.6184 15.5016 17.7798 16.0849C17.9114 16.5608 17.9145 17.0468 17.7048 17.5088C17.4363 18.1004 16.9644 18.4319 16.3258 18.5088C15.5693 18.5997 15.0412 18.2446 14.6833 17.6052C14.4299 17.1527 14.3552 16.6569 14.3791 16.1447C14.3976 15.7496 14.4676 15.3641 14.6274 14.9995C14.8717 14.4424 15.276 14.0243 15.7749 13.6903C16.0994 13.4731 16.4502 13.3096 16.8197 13.185C16.8401 13.1782 16.8611 13.1727 16.8821 13.1673C16.8846 13.1666 16.8875 13.1671 16.8923 13.168Z" fill="white"/>
</svg>
