<svg width="32" height="32" viewBox="0 0 32 32" fill="none" xmlns="http://www.w3.org/2000/svg">
<g clip-path="url(#clip0_1_414)">
<rect width="32" height="32" fill="#209AE8"/>
<rect x="6" y="5" width="21" height="22" fill="white"/>
<path d="M0 25.4013C0 29 2.96 32 6.59867 32H25.4013C27.1507 31.9975 28.8276 31.3015 30.0646 30.0646C31.3015 28.8276 31.9975 27.1507 32 25.4013V6.6C32 3 29.0387 0 25.4013 0H6.59867C3 0 0 2.96133 0 6.6V25.4013ZM8.86133 6.34133H17.6C21.8413 6.34133 25.1227 8.54133 25.1227 13.5413C25.1227 18.2813 21.4827 21.08 16.5213 21.08H16.5V21.0813H14.8613V24.8C14.8599 25.028 14.7687 25.2463 14.6075 25.4075C14.4463 25.5687 14.228 25.6599 14 25.6613H8.86133V6.34133Z" fill="#209AE8"/>
</g>
<defs>
<clipPath id="clip0_1_414">
<rect width="32" height="32" fill="white"/>
</clipPath>
</defs>
</svg>
