<svg width="32" height="32" viewBox="0 0 32 32" fill="none" xmlns="http://www.w3.org/2000/svg">
<rect width="32" height="32" fill="white"/>
<path d="M21.408 10.2917L23.042 7.53118C23.5312 6.72497 23.2377 5.70026 22.4059 5.22597C21.5743 4.76102 20.5176 5.03636 20.0284 5.84263L18.3944 8.60314C14.9015 7.53118 10.978 8.90674 9.07007 12.1226C7.85685 14.1621 7.71007 16.5148 8.4537 18.5641L11.477 13.4698C12.1717 12.2935 13.2969 11.4587 14.6373 11.1076C15.9876 10.7565 17.3964 10.9273 18.5999 11.6106C21.0949 13.005 21.9461 16.0976 20.5078 18.5261C19.0695 20.9547 15.8799 21.7704 13.3751 20.376L15.1167 17.4541C15.9483 17.9284 17.0051 17.6438 17.4943 16.8375C17.9835 16.0311 17.6899 15.0066 16.8582 14.5323C16.0266 14.0675 14.9699 14.3426 14.4806 15.1488L8.94287 24.4647C8.46338 25.2709 8.7472 26.2956 9.57887 26.7699C10.4106 27.2441 11.4673 26.9597 11.9564 26.1532L13.5904 23.3927C17.0834 24.4646 21.0068 23.0893 22.9148 19.8732C24.8423 16.6669 24.1182 12.6825 21.408 10.2917Z" fill="black"/>
</svg>
