<svg width="32" height="32" viewBox="0 0 32 32" fill="none" xmlns="http://www.w3.org/2000/svg">
<rect width="32" height="32" fill="white"/>
<path d="M23.865 21.8348C25.0977 20.1819 25.8361 18.1388 25.8361 15.9184C25.8361 10.4409 21.3959 6 15.9177 6C10.4402 6 6 10.4402 6 15.9177C6 21.3952 10.4402 25.8361 15.9184 25.8361C18.1305 25.8361 20.1665 25.1028 21.8162 23.8785L21.7866 23.9139L23.8091 26L25.9743 23.9139L23.865 21.8348Z" fill="black"/>
<path d="M15.9184 25.081C20.9791 25.081 25.0816 20.9784 25.0816 15.9177C25.0816 10.857 20.9791 6.75449 15.9184 6.75449C10.8576 6.75449 6.75513 10.857 6.75513 15.9177C6.75513 20.9784 10.8576 25.081 15.9184 25.081Z" fill="white"/>
<path d="M15.9184 8.53854C11.8426 8.53854 8.53857 11.8425 8.53857 15.9184C8.53857 19.9942 11.8426 23.2982 15.9184 23.2982C19.9942 23.2982 23.2982 19.9942 23.2982 15.9184C23.2982 11.8425 19.9936 8.53854 15.9184 8.53854ZM15.9184 18.8207C14.3149 18.8207 13.0154 17.5212 13.0154 15.9177C13.0154 14.3143 14.3149 13.0148 15.9184 13.0148C17.5219 13.0148 18.8214 14.3143 18.8214 15.9177C18.8214 17.5212 17.5212 18.8207 15.9184 18.8207Z" fill="black"/>
<path d="M15.9184 16.5475C16.2662 16.5475 16.5482 16.2656 16.5482 15.9177C16.5482 15.5699 16.2662 15.2879 15.9184 15.2879C15.5706 15.2879 15.2886 15.5699 15.2886 15.9177C15.2886 16.2656 15.5706 16.5475 15.9184 16.5475Z" fill="black"/>
<path d="M12.3894 15.768C12.4679 13.8869 14.0173 12.3856 15.9177 12.3856C17.8181 12.3856 19.3676 13.8869 19.446 15.768H22.7333C22.6536 12.0707 19.6337 9.09833 15.9171 9.09833C12.2005 9.09833 9.18186 12.0713 9.10217 15.768H12.3894Z" fill="url(#paint0_linear_133_240)"/>
<path d="M15.9185 9.09897V12.3862C17.8195 12.41 19.403 13.9351 19.4487 15.831H22.7359C22.6897 12.1202 19.635 9.12339 15.9185 9.09897Z" fill="url(#paint1_linear_133_240)"/>
<path d="M15.9184 9.09897V12.3862C14.0173 12.41 12.4357 13.9351 12.3901 15.831H9.10217C9.14845 12.1202 12.2018 9.12339 15.9184 9.09897Z" fill="url(#paint2_linear_133_240)"/>
<path d="M20.7776 21.4691C19.4794 22.6067 17.7796 23.2976 15.9177 23.2976C15.91 23.2976 15.9029 23.2969 15.8959 23.2969V25.0803C15.9036 25.0803 15.9107 25.081 15.9177 25.081C18.2269 25.081 20.3355 24.2249 21.9466 22.8149C21.561 22.3631 21.1587 21.9242 20.7776 21.4691Z" fill="url(#paint3_linear_133_240)"/>
<path d="M24.9763 23.9312L20.0335 18.9775C19.8876 18.7841 19.6569 18.6588 19.3966 18.6588C18.9557 18.6588 18.5984 19.0161 18.5984 19.457C18.5984 19.6716 18.6839 19.8663 18.822 20.0103C18.831 20.0199 18.8413 20.0296 18.851 20.0386L23.8882 24.9634L24.9763 23.9312Z" fill="white"/>
<defs>
<linearGradient id="paint0_linear_133_240" x1="9.10211" y1="12.433" x2="22.7343" y2="12.433" gradientUnits="userSpaceOnUse">
<stop/>
<stop offset="0.5108" stop-color="#DFDFDF"/>
<stop offset="0.8763"/>
</linearGradient>
<linearGradient id="paint1_linear_133_240" x1="15.7055" y1="9.63926" x2="21.0503" y2="14.2974" gradientUnits="userSpaceOnUse">
<stop offset="0.0029" stop-color="#B5B5B5" stop-opacity="0"/>
<stop offset="0.1244" stop-color="#969696" stop-opacity="0.1632"/>
<stop offset="0.5553" stop-color="#2B2B2B" stop-opacity="0.7421"/>
<stop offset="0.7473"/>
</linearGradient>
<linearGradient id="paint2_linear_133_240" x1="16.1316" y1="9.63978" x2="10.7875" y2="14.2974" gradientUnits="userSpaceOnUse">
<stop offset="0.0029" stop-color="#B5B5B5" stop-opacity="0"/>
<stop offset="0.1244" stop-color="#969696" stop-opacity="0.1632"/>
<stop offset="0.5553" stop-color="#2B2B2B" stop-opacity="0.7421"/>
<stop offset="0.7473"/>
</linearGradient>
<linearGradient id="paint3_linear_133_240" x1="16.7721" y1="24.5609" x2="21.7731" y2="21.1544" gradientUnits="userSpaceOnUse">
<stop offset="0.0029" stop-color="#B5B5B5" stop-opacity="0"/>
<stop offset="0.0486" stop-color="#A8A8A8" stop-opacity="0.0514"/>
<stop offset="0.2682" stop-color="#6C6C6C" stop-opacity="0.2982"/>
<stop offset="0.4258" stop-color="#3E3E3E" stop-opacity="0.5252"/>
<stop offset="0.5591" stop-color="#1C1C1C" stop-opacity="0.725"/>
<stop offset="0.7208" stop-color="#070707" stop-opacity="0.8901"/>
<stop offset="0.8679"/>
</linearGradient>
</defs>
</svg>
