<svg width="32" height="32" viewBox="0 0 32 32" fill="none" xmlns="http://www.w3.org/2000/svg">
<rect width="32" height="32" fill="white"/>
<path d="M5 16.0002C5 22.0869 9.95 27.0002 16 27.0002C22.0867 27.0002 27 22.0502 27 16.0002C27 9.91352 22.05 5.00018 16 5.00018C9.95 4.96352 5 9.91352 5 16.0002Z" fill="url(#paint0_linear_104_314)"/>
<path d="M14.0934 20.2168C12.9384 20.2168 11.8018 19.8318 10.9034 19.0802C9.82177 18.1452 9.1801 16.8802 9.08844 15.5052C9.0151 14.1668 9.4551 12.8835 10.3718 11.8752C11.3984 10.7568 13.2134 8.99684 13.3051 8.92351C13.8001 8.44684 14.5884 8.46517 15.0651 8.96017C15.5418 9.45517 15.5234 10.2435 15.0284 10.7202C15.0101 10.7385 13.1768 12.4802 12.2234 13.5435C11.7651 14.0385 11.5451 14.6802 11.5818 15.3402C11.6184 16.0368 11.9668 16.6968 12.5351 17.1918C13.2868 17.8518 14.7718 17.9802 15.7068 17.1552C16.2568 16.6602 16.9351 15.9268 16.9351 15.9268C17.3934 15.4135 18.1818 15.3952 18.6951 15.8535C19.2084 16.3118 19.2268 17.1002 18.7684 17.6135C18.7318 17.6502 18.0168 18.4385 17.3568 19.0068C16.4768 19.8135 15.2851 20.2168 14.0934 20.2168ZM21.6101 20.1252C20.5834 21.2435 18.7501 23.0035 18.6768 23.0768C18.4384 23.2968 18.1268 23.4252 17.8151 23.4252C17.4851 23.4252 17.1551 23.2968 16.9168 23.0402C16.4401 22.5452 16.4584 21.7568 16.9534 21.2802C16.9718 21.2618 18.8051 19.5202 19.7584 18.4568C20.2168 17.9618 20.4368 17.3202 20.4001 16.6602C20.3634 15.9635 20.0151 15.3035 19.4468 14.8085C18.6951 14.1668 17.2101 14.0202 16.2751 14.8452C15.7251 15.3402 15.0468 16.0735 15.0468 16.0735C14.5884 16.5868 13.8001 16.6052 13.2868 16.1468C12.7734 15.6885 12.7551 14.9002 13.2134 14.3868C13.2501 14.3502 13.9651 13.5618 14.6251 12.9935C16.3851 11.4168 19.3001 11.3802 21.0784 12.9202C22.1601 13.8552 22.8018 15.1202 22.8934 16.4952C22.9851 17.8518 22.5268 19.1352 21.6101 20.1252Z" fill="white"/>
<defs>
<linearGradient id="paint0_linear_104_314" x1="16.001" y1="27.0009" x2="16.001" y2="-7.41657" gradientUnits="userSpaceOnUse">
<stop stop-color="#2255FF"/>
<stop offset="1" stop-color="#00AAFF"/>
</linearGradient>
</defs>
</svg>
