<svg width="32" height="32" viewBox="0 0 32 32" fill="none" xmlns="http://www.w3.org/2000/svg">
<rect width="32" height="32" fill="#FFFC00"/>
<path d="M16.145 26.999C16.0785 26.999 16.0164 26.9965 15.9669 26.9942C15.9286 26.9974 15.8891 26.999 15.8495 26.999C14.4533 26.999 13.5197 26.3394 12.6959 25.7571C12.1055 25.3394 11.5485 24.9468 10.8951 24.8385C10.5821 24.786 10.2654 24.7593 9.94807 24.7585C9.50629 24.7631 9.06613 24.8129 8.63446 24.9069C8.47079 24.945 8.30414 24.9689 8.13635 24.9783C8.05181 24.9879 7.9667 24.9659 7.89753 24.9163C7.82836 24.8668 7.78008 24.7934 7.76205 24.7103C7.70674 24.523 7.66718 24.3414 7.62892 24.1663C7.53245 23.7293 7.46395 23.4626 7.30027 23.4372C5.54901 23.1673 4.51452 22.7695 4.30968 22.2879C4.28873 22.2397 4.27643 22.1883 4.27334 22.1359C4.26941 22.0667 4.29124 21.9984 4.33464 21.9443C4.37804 21.8902 4.43993 21.8541 4.50841 21.8428C5.95688 21.5804 7.26196 20.8046 8.18394 19.6579C8.69169 19.0711 9.1139 18.4156 9.43806 17.7107L9.4445 17.6972C9.53997 17.5412 9.60017 17.3662 9.62089 17.1845C9.64161 17.0028 9.62234 16.8187 9.56444 16.6452C9.33934 16.1134 8.59137 15.8766 8.09712 15.7198C7.98531 15.6859 7.87463 15.6484 7.76526 15.6074C7.32696 15.4345 6.60761 15.0688 6.70215 14.5644C6.77226 14.1965 7.25911 13.9404 7.65271 13.9404C7.7516 13.9383 7.84974 13.9579 7.94019 13.9979C8.30952 14.1869 8.71541 14.2939 9.13 14.3115C9.37628 14.3291 9.62031 14.2545 9.81462 14.1023C9.80176 13.8688 9.78772 13.6354 9.7725 13.4022C9.67217 11.8055 9.5474 9.81883 10.0555 8.6788C11.5778 5.26833 14.806 5.00325 15.7588 5.00325L16.2306 4.99875C17.186 4.99875 20.4209 5.26416 21.9442 8.67687C22.4529 9.8169 22.3275 11.8055 22.2266 13.4034L22.2217 13.4799C22.2079 13.6968 22.195 13.9025 22.1844 14.1013C22.3609 14.2408 22.5805 14.3142 22.8054 14.3089C23.1956 14.2796 23.5762 14.1737 23.9254 13.9972C24.0411 13.9472 24.1662 13.9224 24.2923 13.9246C24.4355 13.9241 24.5775 13.9513 24.7104 14.0046L24.7171 14.0072C24.8674 14.0429 25.0035 14.1226 25.1082 14.236C25.213 14.3495 25.2814 14.4915 25.3049 14.6441C25.3094 14.8886 25.1274 15.2546 24.2331 15.608C24.1415 15.6443 24.0248 15.6813 23.9013 15.7205C23.4064 15.8773 22.6597 16.1141 22.434 16.6455C22.376 16.819 22.3566 17.003 22.3774 17.1847C22.3981 17.3663 22.4583 17.5413 22.5539 17.6972L22.5603 17.711C22.6227 17.8569 24.129 21.2886 27.4894 21.8419C27.5578 21.8532 27.6197 21.8894 27.663 21.9434C27.7064 21.9975 27.7283 22.0657 27.7244 22.1349C27.7211 22.1878 27.7085 22.2397 27.6871 22.2882C27.4826 22.7673 26.4478 23.1644 24.6965 23.4347C24.5322 23.46 24.4627 23.7255 24.3682 24.1602C24.3302 24.3419 24.2857 24.5222 24.2348 24.7006C24.2185 24.7786 24.1743 24.8478 24.1106 24.8955C24.0468 24.9432 23.9678 24.966 23.8884 24.9596H23.8611C23.6934 24.9532 23.5265 24.9317 23.3627 24.8954C22.9306 24.8049 22.4905 24.7583 22.049 24.7562C21.7316 24.7571 21.4148 24.7838 21.1017 24.8362C20.4499 24.9445 19.8932 25.3375 19.3038 25.7539C18.4783 26.3371 17.5445 26.9968 16.1482 26.9968" fill="white"/>
<path d="M16.2283 5.28215C17.3826 5.26647 18.5159 5.59121 19.4865 6.21576C20.4571 6.84031 21.2218 7.73695 21.685 8.79351C22.1658 9.87024 22.0426 11.821 21.9423 13.3883C21.9268 13.637 21.9101 13.878 21.8992 14.1081L21.894 14.2071L21.9603 14.2806C22.1862 14.4893 22.485 14.6013 22.7925 14.5926H22.8108C23.2394 14.5622 23.6577 14.4472 24.0415 14.2543C24.1199 14.2217 24.2042 14.206 24.2891 14.2084C24.396 14.2078 24.502 14.2278 24.6013 14.2675L24.6155 14.2729C24.8512 14.3555 25.0178 14.511 25.0203 14.6518C25.0203 14.7315 24.9621 15.0181 24.1267 15.3477C24.045 15.3799 23.9376 15.4143 23.8129 15.4535C23.2691 15.626 22.4478 15.8863 22.1728 16.5369C22.0982 16.7473 22.0709 16.9716 22.0928 17.1937C22.1147 17.4158 22.1853 17.6304 22.2995 17.8222C22.3983 18.052 23.9498 21.5447 27.4414 22.1195C27.4403 22.1389 27.4355 22.1578 27.4273 22.1754C27.3681 22.3145 26.9919 22.7959 24.6512 23.1567C24.2849 23.213 24.1952 23.623 24.091 24.1001C24.0544 24.2753 24.0115 24.4492 23.9624 24.6213C23.9463 24.6749 23.9434 24.6782 23.8855 24.6782H23.8579C23.7085 24.672 23.5599 24.6529 23.4138 24.621C22.9638 24.5273 22.5055 24.4789 22.0458 24.4767C21.713 24.4774 21.3807 24.5056 21.0525 24.5609C20.336 24.6798 19.7537 25.0917 19.1366 25.5274C18.3082 26.1125 17.4519 26.7163 16.146 26.7163C16.0891 26.7163 16.0331 26.7143 15.9775 26.7115H15.9479C15.9158 26.7143 15.8836 26.7156 15.8514 26.7156C14.5452 26.7156 13.6882 26.1106 12.8608 25.5268C12.2438 25.0911 11.6611 24.6794 10.9446 24.5602C10.6165 24.505 10.2844 24.4769 9.95161 24.4761C9.49168 24.4805 9.03341 24.532 8.58397 24.6296C8.43785 24.6636 8.28924 24.6857 8.13956 24.6958C8.05467 24.6958 8.05306 24.691 8.03538 24.6296C7.98628 24.4562 7.94337 24.2811 7.90675 24.1046C7.80256 23.6271 7.71381 23.2146 7.34657 23.1586C5.00587 22.7975 4.62963 22.3155 4.57047 22.1764C4.56236 22.1583 4.55746 22.1389 4.556 22.1192C8.04759 21.5447 9.59917 18.052 9.69789 17.8212C9.81237 17.6295 9.88305 17.4149 9.9049 17.1927C9.92675 16.9705 9.89921 16.7463 9.82427 16.536C9.54772 15.8856 8.72675 15.6247 8.18426 15.4528C8.05949 15.4133 7.95177 15.3789 7.87009 15.3468C7.16457 15.0682 6.94783 14.7877 6.97998 14.6177C7.01729 14.4217 7.35751 14.2222 7.65528 14.2222C7.71309 14.2208 7.77054 14.2317 7.82378 14.2543C8.23002 14.4611 8.67636 14.5772 9.13193 14.5946C9.29639 14.6068 9.46162 14.5852 9.61742 14.5312C9.77322 14.4771 9.91629 14.3918 10.0378 14.2803L10.1021 14.2067L10.097 14.1084C10.0847 13.8784 10.0696 13.6374 10.0535 13.3893C9.95514 11.8219 9.83198 9.87282 10.3108 8.79447C10.7732 7.73969 11.5364 6.84444 12.5051 6.22057C13.4737 5.5967 14.6049 5.27186 15.7572 5.28665L16.1753 5.28247H16.2283M16.2283 4.72049H16.1685L15.7556 4.72467C14.8106 4.72985 13.8765 4.92741 13.0104 5.30529C12.364 5.5882 11.7715 5.98075 11.2591 6.46556C10.6378 7.06303 10.1406 7.77715 9.79597 8.56698C9.25927 9.76935 9.38661 11.7943 9.48919 13.4218V13.4243C9.50012 13.5985 9.5117 13.7807 9.52135 13.958C9.39671 14.0109 9.26212 14.0362 9.12678 14.0323C8.75378 14.0142 8.38902 13.9163 8.05724 13.745C7.92933 13.6876 7.79035 13.659 7.65014 13.6611C7.39692 13.6641 7.14895 13.7336 6.93111 13.8626C6.80483 13.9286 6.69416 14.0208 6.60657 14.1331C6.51898 14.2454 6.45651 14.3751 6.42335 14.5136C6.39969 14.672 6.41892 14.8339 6.47903 14.9824C6.53914 15.1309 6.63794 15.2606 6.76518 15.358C7.0305 15.5809 7.33328 15.755 7.65946 15.8721C7.7614 15.9123 7.88231 15.9505 8.01061 15.991C8.45534 16.1321 9.12807 16.3445 9.30364 16.7583C9.34415 16.8948 9.35498 17.0383 9.33541 17.1793C9.31583 17.3203 9.26629 17.4555 9.19013 17.5758C9.18595 17.5848 9.18145 17.5938 9.17759 17.6031C8.86526 18.2818 8.45841 18.9131 7.96913 19.478C7.54735 19.9759 7.05599 20.4105 6.51017 20.7684C5.88984 21.1733 5.19228 21.4455 4.46145 21.5678C4.32448 21.5903 4.20065 21.6625 4.1138 21.7707C4.02695 21.8789 3.98321 22.0154 3.991 22.1539C3.99619 22.2382 4.01577 22.321 4.04888 22.3987C4.22519 22.7227 4.5145 22.9706 4.86181 23.0953C5.61412 23.4013 6.40334 23.6073 7.20926 23.7081C7.27305 23.8757 7.32107 24.0489 7.35268 24.2254C7.39191 24.4063 7.43275 24.592 7.49096 24.7897C7.52509 24.9314 7.60848 25.0564 7.72626 25.1425C7.84405 25.2285 7.98858 25.2699 8.1341 25.2594C8.32007 25.2506 8.50486 25.225 8.68623 25.1829C9.10022 25.0924 9.52238 25.0444 9.94614 25.0396C10.2479 25.0405 10.549 25.0661 10.8465 25.1161C11.435 25.2125 11.9421 25.5721 12.529 25.9866C13.3879 26.5932 14.3619 27.2802 15.846 27.2802C15.8865 27.2802 15.927 27.2802 15.9672 27.276C16.0164 27.2783 16.0772 27.2802 16.1415 27.2802C17.6275 27.2802 18.5996 26.5932 19.4578 25.9869C20.0447 25.5727 20.5512 25.2157 21.1396 25.1174C21.4372 25.0674 21.7383 25.0418 22.04 25.0409C22.4634 25.043 22.8856 25.0878 23.2999 25.1746C23.4815 25.2143 23.6663 25.237 23.8521 25.2424H23.8797C24.0201 25.2485 24.1582 25.2059 24.2706 25.1218C24.3831 25.0377 24.4629 24.9173 24.4965 24.781C24.5534 24.5882 24.593 24.406 24.6345 24.2222C24.6663 24.0469 24.7141 23.8748 24.7772 23.7081C25.5831 23.6071 26.3723 23.4011 27.1247 23.0953C27.4713 22.9708 27.7602 22.7238 27.937 22.401C27.9714 22.3227 27.9915 22.2389 27.9965 22.1536C28.0042 22.0151 27.9605 21.8786 27.8737 21.7704C27.7868 21.6622 27.663 21.5899 27.526 21.5675C24.3158 21.0389 22.8697 17.7438 22.8099 17.6031C22.806 17.5939 22.8017 17.5848 22.797 17.5758C22.7208 17.4555 22.6714 17.3203 22.6519 17.1793C22.6324 17.0383 22.6434 16.8947 22.6841 16.7583C22.8594 16.3461 23.5318 16.1327 23.9769 15.9917C24.1055 15.9512 24.227 15.9126 24.3283 15.8728C24.684 15.7505 25.0102 15.5552 25.286 15.2995C25.3766 15.2156 25.4492 15.1141 25.4993 15.0013C25.5495 14.8884 25.5761 14.7666 25.5776 14.6431C25.5561 14.433 25.4705 14.2345 25.3325 14.0745C25.1945 13.9144 25.0107 13.8006 24.8059 13.7482C24.6398 13.6813 24.4623 13.6474 24.2833 13.6483C24.1161 13.6462 23.9504 13.6799 23.7974 13.7473C23.4852 13.9055 23.1455 14.0023 22.7967 14.0326C22.6827 14.0294 22.5703 14.0046 22.4655 13.9597C22.4742 13.8093 22.4838 13.655 22.4941 13.4941L22.4983 13.4253C22.6012 11.7969 22.7288 9.76999 22.1921 8.56698C21.8463 7.77459 21.3471 7.05835 20.7232 6.45946C20.2088 5.97431 19.6142 5.58176 18.9658 5.29918C18.0994 4.92379 17.1659 4.7277 16.2216 4.72274" fill="#020202"/>
</svg>
