<svg width="32" height="32" viewBox="0 0 32 32" fill="none" xmlns="http://www.w3.org/2000/svg">
<g clip-path="url(#clip0_1_177)">
<path d="M31.9906 0H0.009375C0.00419733 0 0 0.00419733 0 0.009375V31.9906C0 31.9958 0.00419733 32 0.009375 32H31.9906C31.9958 32 32 31.9958 32 31.9906V0.009375C32 0.00419733 31.9958 0 31.9906 0Z" fill="white"/>
<path d="M11.676 14.2909H5L6.16242 12H12.7909L11.676 14.2909Z" fill="#1671F8"/>
<path d="M19.2995 14.2909H23.8226L22.6624 12H18.1846L19.2995 14.2909Z" fill="#1671F8"/>
<path d="M20.8894 17.457H25.4124L24.25 15.1639H19.7722L20.8894 17.457Z" fill="#1671F8"/>
<path d="M22.477 20.6209H27L25.8398 18.3277H21.362L22.477 20.6209Z" fill="#1671F8"/>
<path d="M8.45333 20.6209H5.21484L8.0259 15.1503H11.3096L8.45333 20.6209Z" fill="#1671F8"/>
<path d="M12.6688 20.6209H9.33984L13.7385 12L15.5273 15.1503L12.6688 20.6209Z" fill="#1671F8"/>
<path d="M18.3995 20.6209H21.7284L17.3298 12L15.5409 15.1503L18.3995 20.6209Z" fill="#1671F8"/>
</g>
<defs>
<clipPath id="clip0_1_177">
<rect width="32" height="32" fill="white"/>
</clipPath>
</defs>
</svg>
