<svg width="32" height="32" viewBox="0 0 32 32" fill="none" xmlns="http://www.w3.org/2000/svg">
<rect width="32" height="32" fill="white"/>
<circle cx="16" cy="16" r="10.1127" stroke="url(#paint0_linear_137_228)" stroke-width="1.77465"/>
<path d="M13.8311 10.4225C13.8311 10.9359 13.4149 11.3521 12.9015 11.3521C12.3881 11.3521 11.9719 10.9359 11.9719 10.4225C11.9719 9.90914 12.3881 9.49295 12.9015 9.49295C13.4149 9.49295 13.8311 9.90914 13.8311 10.4225Z" fill="url(#paint1_linear_137_228)"/>
<path d="M16.9297 12.2817C16.9297 12.7951 16.5135 13.2113 16.0001 13.2113C15.4867 13.2113 15.0705 12.7951 15.0705 12.2817C15.0705 11.7683 15.4867 11.3521 16.0001 11.3521C16.5135 11.3521 16.9297 11.7683 16.9297 12.2817Z" fill="url(#paint2_linear_137_228)"/>
<path d="M20.0283 14.1408C20.0283 14.6542 19.6121 15.0704 19.0987 15.0704C18.5853 15.0704 18.1691 14.6542 18.1691 14.1408C18.1691 13.6274 18.5853 13.2113 19.0987 13.2113C19.6121 13.2113 20.0283 13.6274 20.0283 14.1408Z" fill="url(#paint3_linear_137_228)"/>
<path d="M23.1269 16C23.1269 16.5134 22.7107 16.9296 22.1973 16.9296C21.6839 16.9296 21.2677 16.5134 21.2677 16C21.2677 15.4866 21.6839 15.0704 22.1973 15.0704C22.7107 15.0704 23.1269 15.4866 23.1269 16Z" fill="url(#paint4_linear_137_228)"/>
<path d="M20.0283 17.8591C20.0283 18.3725 19.6121 18.7887 19.0987 18.7887C18.5853 18.7887 18.1691 18.3725 18.1691 17.8591C18.1691 17.3458 18.5853 16.9296 19.0987 16.9296C19.6121 16.9296 20.0283 17.3458 20.0283 17.8591Z" fill="url(#paint5_linear_137_228)"/>
<path d="M16.9297 19.7183C16.9297 20.2317 16.5135 20.6479 16.0001 20.6479C15.4867 20.6479 15.0705 20.2317 15.0705 19.7183C15.0705 19.2049 15.4867 18.7887 16.0001 18.7887C16.5135 18.7887 16.9297 19.2049 16.9297 19.7183Z" fill="url(#paint6_linear_137_228)"/>
<path d="M13.8311 21.5775C13.8311 22.0909 13.4149 22.507 12.9015 22.507C12.3881 22.507 11.9719 22.0909 11.9719 21.5775C11.9719 21.0641 12.3881 20.6479 12.9015 20.6479C13.4149 20.6479 13.8311 21.0641 13.8311 21.5775Z" fill="url(#paint7_linear_137_228)"/>
<path d="M13.8311 17.7042C13.8311 18.2176 13.4149 18.6338 12.9015 18.6338C12.3881 18.6338 11.9719 18.2176 11.9719 17.7042C11.9719 17.1908 12.3881 16.7746 12.9015 16.7746C13.4149 16.7746 13.8311 17.1908 13.8311 17.7042Z" fill="url(#paint8_linear_137_228)"/>
<path d="M16.9297 16C16.9297 16.5134 16.5135 16.9296 16.0001 16.9296C15.4867 16.9296 15.0705 16.5134 15.0705 16C15.0705 15.4866 15.4867 15.0704 16.0001 15.0704C16.5135 15.0704 16.9297 15.4866 16.9297 16Z" fill="url(#paint9_linear_137_228)"/>
<path d="M13.8311 14.1408C13.8311 14.6542 13.4149 15.0704 12.9015 15.0704C12.3881 15.0704 11.9719 14.6542 11.9719 14.1408C11.9719 13.6274 12.3881 13.2113 12.9015 13.2113C13.4149 13.2113 13.8311 13.6274 13.8311 14.1408Z" fill="url(#paint10_linear_137_228)"/>
<defs>
<linearGradient id="paint0_linear_137_228" x1="16" y1="5" x2="16" y2="27" gradientUnits="userSpaceOnUse">
<stop stop-color="#646FDD"/>
<stop offset="1" stop-color="#9C4CBF"/>
</linearGradient>
<linearGradient id="paint1_linear_137_228" x1="17.5494" y1="9.49295" x2="17.5494" y2="22.507" gradientUnits="userSpaceOnUse">
<stop stop-color="#666EDC"/>
<stop offset="1" stop-color="#9A4EC1"/>
</linearGradient>
<linearGradient id="paint2_linear_137_228" x1="17.5494" y1="9.49295" x2="17.5494" y2="22.507" gradientUnits="userSpaceOnUse">
<stop stop-color="#666EDC"/>
<stop offset="1" stop-color="#9A4EC1"/>
</linearGradient>
<linearGradient id="paint3_linear_137_228" x1="17.5494" y1="9.49295" x2="17.5494" y2="22.507" gradientUnits="userSpaceOnUse">
<stop stop-color="#666EDC"/>
<stop offset="1" stop-color="#9A4EC1"/>
</linearGradient>
<linearGradient id="paint4_linear_137_228" x1="17.5494" y1="9.49295" x2="17.5494" y2="22.507" gradientUnits="userSpaceOnUse">
<stop stop-color="#666EDC"/>
<stop offset="1" stop-color="#9A4EC1"/>
</linearGradient>
<linearGradient id="paint5_linear_137_228" x1="17.5494" y1="9.49295" x2="17.5494" y2="22.507" gradientUnits="userSpaceOnUse">
<stop stop-color="#666EDC"/>
<stop offset="1" stop-color="#9A4EC1"/>
</linearGradient>
<linearGradient id="paint6_linear_137_228" x1="17.5494" y1="9.49295" x2="17.5494" y2="22.507" gradientUnits="userSpaceOnUse">
<stop stop-color="#666EDC"/>
<stop offset="1" stop-color="#9A4EC1"/>
</linearGradient>
<linearGradient id="paint7_linear_137_228" x1="17.5494" y1="9.49295" x2="17.5494" y2="22.507" gradientUnits="userSpaceOnUse">
<stop stop-color="#666EDC"/>
<stop offset="1" stop-color="#9A4EC1"/>
</linearGradient>
<linearGradient id="paint8_linear_137_228" x1="17.5494" y1="9.49295" x2="17.5494" y2="22.507" gradientUnits="userSpaceOnUse">
<stop stop-color="#666EDC"/>
<stop offset="1" stop-color="#9A4EC1"/>
</linearGradient>
<linearGradient id="paint9_linear_137_228" x1="17.5494" y1="9.49295" x2="17.5494" y2="22.507" gradientUnits="userSpaceOnUse">
<stop stop-color="#666EDC"/>
<stop offset="1" stop-color="#9A4EC1"/>
</linearGradient>
<linearGradient id="paint10_linear_137_228" x1="17.5494" y1="9.49295" x2="17.5494" y2="22.507" gradientUnits="userSpaceOnUse">
<stop stop-color="#666EDC"/>
<stop offset="1" stop-color="#9A4EC1"/>
</linearGradient>
</defs>
</svg>
