<svg width="32" height="32" viewBox="0 0 32 32" fill="none" xmlns="http://www.w3.org/2000/svg">
<rect width="32" height="32" fill="#8AAC3E"/>
<circle cx="16" cy="16" r="10" stroke="white" stroke-width="2"/>
<path d="M11.0056 20.0068C11.0062 20.5591 11.4545 21.0062 12.0068 21.0056L21.0068 20.9944C21.5591 20.9937 22.0062 20.5455 22.0055 19.9932C22.0049 19.4409 21.5566 18.9938 21.0043 18.9944L13.0043 19.0043L12.9944 11.0043C12.9937 10.4521 12.5455 10.0049 11.9932 10.0056C11.4409 10.0063 10.9937 10.4545 10.9944 11.0068L11.0056 20.0068ZM22.2929 8.28172C21.2952 9.27941 18.5461 12.0341 16.047 14.5388C14.7973 15.7912 13.61 16.9814 12.735 17.8584C12.2976 18.2969 11.9382 18.6571 11.6882 18.9077C11.5632 19.033 11.4655 19.1309 11.3991 19.1975C11.3659 19.2308 11.3405 19.2563 11.3235 19.2734C11.3149 19.282 11.3084 19.2884 11.3041 19.2928C11.3019 19.295 11.3003 19.2966 11.2992 19.2977C11.2987 19.2982 11.2983 19.2986 11.298 19.2989C11.2978 19.2991 11.2977 19.2992 11.2977 19.2992C11.2976 19.2993 11.2976 19.2993 12.0056 20.0056C12.7135 20.7118 12.7136 20.7118 12.7136 20.7117C12.7137 20.7116 12.7138 20.7115 12.7139 20.7114C12.7142 20.7111 12.7146 20.7107 12.7152 20.7102C12.7163 20.7091 12.7179 20.7074 12.7201 20.7053C12.7244 20.7009 12.7309 20.6944 12.7394 20.6859C12.7565 20.6687 12.7819 20.6433 12.8151 20.61C12.8815 20.5434 12.9791 20.4455 13.1041 20.3202C13.3541 20.0696 13.7135 19.7094 14.1509 19.2709C15.0258 18.3939 16.2131 17.2038 17.4628 15.9514C19.9623 13.4463 22.7104 10.6926 23.7071 9.69593L22.2929 8.28172Z" fill="white"/>
</svg>
