<svg width="32" height="32" viewBox="0 0 32 32" fill="none" xmlns="http://www.w3.org/2000/svg">
<g clip-path="url(#clip0_1_422)">
<rect width="32" height="32" fill="white"/>
<rect width="32" height="11" fill="#0077FF"/>
<rect width="32" height="11" transform="translate(0 21)" fill="#F45FFF"/>
<path fill-rule="evenodd" clip-rule="evenodd" d="M2.25037 2.24942C0.0672626 4.43155 0.00195224 7.90384 0 14.7198C6.11091 14.7198 9.92627 12.0974 13.273 9.79719C15.8875 8.00023 18.216 6.39981 21.1295 6.39981C25.466 6.39981 29.2524 9.46458 31.2601 11.0897C31.5432 11.3188 31.791 11.5194 32 11.6786C31.9366 6.81901 31.5956 4.08016 29.764 2.24942C27.5136 9.53674e-07 23.8915 7.44909e-07 16.6475 1.11901e-07L15.3669 0C8.12283 1.8084e-06 4.50081 1.43051e-06 2.25037 2.24942ZM14.4257 31.9998C14.7324 32 15.0461 32 15.3669 32H16.6475C16.9682 32 17.2819 32 17.5886 31.9998H14.4257Z" fill="#0077FF"/>
<path fill-rule="evenodd" clip-rule="evenodd" d="M6.11217e-05 14.45C6.10822 14.45 9.92186 11.7867 13.267 9.45046C15.8804 7.62542 18.2078 6 21.12 6C25.4546 6 29.2393 9.11266 31.246 10.7631C31.5291 10.9959 31.7767 11.1995 31.9856 11.3613C32 12.49 32 13.7314 32 15.1002V16.4002C32 23.7541 32 27.4311 29.7506 29.7156C27.6008 31.8991 24.1986 31.9957 17.5805 32H14.4195C7.80138 31.9957 4.39926 31.8991 2.24942 29.7156C-9.53674e-07 27.4311 -6.39318e-07 23.7541 6.82445e-10 16.4002L3.24932e-07 15.1002C3.24932e-07 14.8802 3.21666e-07 14.6635 6.11217e-05 14.45Z" fill="#F45FFF"/>
<path d="M25 16.4917C25 15.6678 25.6762 15 26.5 15C27.3238 15 28 15.6678 28 16.4917V22.5083C28 23.3321 27.3238 24 26.5 24C25.6762 24 25 23.3321 25 22.5083V16.4917Z" fill="white"/>
<path d="M20 12.432C20 11.6411 20.6762 11 21.5 11C22.3238 11 23 11.6411 23 12.432V25.568C23 26.3589 22.3238 27 21.5 27C20.6762 27 20 26.3589 20 25.568V12.432Z" fill="white"/>
<path d="M15 16.4917C15 15.6678 15.6762 15 16.5 15C17.3238 15 18 15.6678 18 16.4917V22.5083C18 23.3321 17.3238 24 16.5 24C15.6762 24 15 23.3321 15 22.5083V16.4917Z" fill="white"/>
<path d="M10 18.2786C10 17.5724 10.6762 17 11.5 17C12.3238 17 13 17.5724 13 18.2786V19.7214C13 20.4276 12.3238 21 11.5 21C10.6762 21 10 20.4276 10 19.7214V18.2786Z" fill="white"/>
<path d="M5 18.2786C5 17.5724 5.6762 17 6.5 17C7.32383 17 8 17.5724 8 18.2786V19.7214C8 20.4276 7.32383 21 6.5 21C5.6762 21 5 20.4276 5 19.7214V18.2786Z" fill="white"/>
</g>
<defs>
<clipPath id="clip0_1_422">
<rect width="32" height="32" fill="white"/>
</clipPath>
</defs>
</svg>
