<svg width="32" height="32" viewBox="0 0 32 32" fill="none" xmlns="http://www.w3.org/2000/svg">
<rect width="32" height="32" fill="white"/>
<path d="M22.2932 11.2246L22.1726 12.27C23.5167 13.4986 24.3887 15.1586 24.6374 16.9625C24.8862 18.7664 24.496 20.6005 23.5345 22.1469C22.573 23.6934 21.1009 24.8547 19.3731 25.4298C17.6452 26.0048 15.7707 25.9572 14.0743 25.2953C12.3779 24.6334 10.9665 23.3989 10.0846 21.8057C9.20282 20.2125 8.90615 18.361 9.24605 16.572C9.58595 14.7831 10.541 13.1694 11.9457 12.0106C13.3504 10.8518 15.1162 10.221 16.9372 10.2274C17.7399 10.2252 18.5379 10.35 19.3015 10.5973L19.398 9.73679C18.1004 9.34997 16.7308 9.26931 15.3967 9.50115C14.0627 9.73298 12.8005 10.271 11.7095 11.0729C10.6184 11.8748 9.7282 12.9188 9.1087 14.1228C8.48921 15.3269 8.15734 16.6581 8.13916 18.0121V18.0121C8.18093 20.315 9.11928 22.5109 10.7547 24.1328C12.3902 25.7547 14.5937 26.6748 16.897 26.6975C19.1972 26.6912 21.402 25.7768 23.0315 24.1533C24.6611 22.5297 25.5836 20.3284 25.5985 18.0282C25.6017 16.7148 25.3032 15.4183 24.7259 14.2387C24.1487 13.0591 23.3081 12.0278 22.2691 11.2246" fill="#EF3A3B"/>
<path d="M21.9635 14.2484L21.7704 15.9372C22.0929 16.6214 22.2605 17.3683 22.261 18.1246C22.2626 19.1846 21.9496 20.2213 21.3617 21.1033C20.7738 21.9853 19.9374 22.6731 18.9584 23.0794C17.9794 23.4858 16.9018 23.5926 15.8621 23.3862C14.8224 23.1798 13.8673 22.6695 13.1177 21.9199C12.3682 21.1704 11.8579 20.2153 11.6515 19.1756C11.4451 18.1359 11.5518 17.0583 11.9582 16.0793C12.3646 15.1003 13.0524 14.2639 13.9344 13.676C14.8164 13.088 15.853 12.7751 16.913 12.7767C17.634 12.777 18.3468 12.9305 19.004 13.227L19.1326 12.1333C18.4248 11.8587 17.6723 11.7169 16.913 11.7151C15.6577 11.7294 14.4347 12.1148 13.398 12.8228C12.3613 13.5307 11.5572 14.5296 11.0871 15.6936C10.6169 16.8577 10.5017 18.1348 10.7559 19.3641C11.0102 20.5935 11.6224 21.7202 12.5157 22.6023C13.409 23.4844 14.5432 24.0824 15.7757 24.3212C17.0082 24.5599 18.2837 24.4286 19.4418 23.9439C20.5998 23.4591 21.5885 22.6425 22.2833 21.597C22.9782 20.5515 23.3482 19.3237 23.3467 18.0683C23.3271 16.6759 22.8399 15.3305 21.9635 14.2484" fill="#EF3A3B"/>
<path d="M6.78812 17.7386C6.77954 15.068 7.82892 12.5027 9.70675 10.6038C11.5846 8.70487 14.138 7.62689 16.8085 7.60564H16.905V6.90598H16.8085C13.9397 6.91236 11.1906 8.05649 9.16428 10.0873C7.13798 12.1181 5.99999 14.8698 6 17.7386H6.78812Z" fill="#EF3A3B"/>
<path d="M20.7733 5L19.5348 16.0176C19.0476 15.6529 18.4821 15.4071 17.8831 15.2996C17.2841 15.1921 16.6683 15.2259 16.0848 15.3984C15.5286 15.5005 15.0231 15.787 14.6496 16.2115C14.2761 16.6361 14.0564 17.174 14.026 17.7386C14.0844 18.4568 14.3994 19.1299 14.9132 19.6349C15.4271 20.1399 16.1056 20.4431 16.8246 20.489C19.5991 20.8589 20.3229 19.154 20.4355 18.567C20.5481 17.9799 21.2397 11.6347 21.2397 11.6347L21.6097 8.15249C22.6406 8.1029 23.6581 8.40331 24.4968 9.00494C24.8031 9.33886 25.0051 9.75503 25.0779 10.2022C25.1508 10.6495 25.0914 11.1082 24.9069 11.5221C24.7702 11.9162 24.4566 12.3263 24.8506 12.1735C25.4225 11.8043 25.829 11.2278 25.9846 10.5651C26.0372 10.0525 25.955 9.53506 25.7463 9.06396C25.5375 8.59285 25.2094 8.18442 24.7943 7.87906C24.6094 7.69409 23.0412 6.75317 22.7758 6.48779C22.4056 6.16438 22.1702 5.71379 22.1163 5.22518L20.7733 5Z" fill="#EF3A3B"/>
</svg>
