<svg width="32" height="32" viewBox="0 0 32 32" fill="none" xmlns="http://www.w3.org/2000/svg">
<rect width="32" height="32" fill="white"/>
<path d="M9.41708 7.11064C11.0505 5.91767 12.9776 5.18353 14.9965 5V8.32196C13.6934 8.48714 12.4637 8.98268 11.3992 9.77187C10.0778 10.763 9.08672 12.1395 8.60953 13.7178C8.13235 15.2962 8.16906 16.9847 8.71966 18.5448C9.27026 20.1048 10.3164 21.4446 11.6929 22.3623C13.0694 23.28 14.7028 23.7388 16.3547 23.6654C18.0065 23.592 19.5848 22.9863 20.8696 21.9402C22.1543 20.894 23.0536 19.4625 23.4574 17.8657C23.7327 16.7462 23.7694 15.5899 23.5492 14.4703L26.3389 12.2312V12.2129C27.0914 14.2868 27.2015 16.5443 26.6692 18.6916C26.0819 20.9858 24.7972 23.023 22.9619 24.5096C21.1265 25.9963 18.8691 26.8772 16.5198 26.9873C14.1706 27.0975 11.8214 26.4551 9.87592 25.1336C7.91211 23.8122 6.42548 21.9034 5.63629 19.6827C4.84709 17.4619 4.79203 15.0393 5.47111 12.7818C6.13183 10.506 7.52669 8.52385 9.41708 7.11064Z" fill="#FCCA00"/>
<path d="M24.2282 8.67064L24.2466 8.70734L22.3745 11.6622C21.6955 10.6528 20.7962 9.8269 19.7317 9.22124V15.9569C19.7317 18.0309 18.0615 19.701 15.9876 19.701C13.9136 19.701 12.2435 18.0309 12.2435 15.9569C12.2435 13.883 13.9136 12.2128 15.9876 12.2128C16.7584 12.2128 17.4742 12.4514 18.0799 12.8552V5.14679C20.5025 5.62398 22.6498 6.89036 24.2282 8.67064Z" fill="#FC3F1D"/>
</svg>
