<svg width="32" height="32" viewBox="0 0 32 32" fill="none" xmlns="http://www.w3.org/2000/svg">
<rect width="32" height="32" fill="#082119"/>
<path fill-rule="evenodd" clip-rule="evenodd" d="M12.3731 22.2245L12.1515 19.7881L11.4062 22.2245H11.1195L10.3742 19.7881L10.1601 22.2245H9.82007L10.0952 19.0695H10.4965L11.2609 21.6155L12.0405 19.0695H12.4304L12.7056 22.2245H12.3731Z" fill="white"/>
<path fill-rule="evenodd" clip-rule="evenodd" d="M13.7986 19.0695V21.0151C13.7986 21.6285 14.0661 21.9178 14.4942 21.9178C14.9834 21.9178 15.1669 21.6022 15.1669 21.0151V19.0695H15.5185V21.0502C15.5185 21.8652 15.1592 22.2771 14.4828 22.2771C13.8559 22.2771 13.447 21.8959 13.447 21.0502V19.0695H13.7986Z" fill="white"/>
<path fill-rule="evenodd" clip-rule="evenodd" d="M16.3664 21.5278C16.6148 21.7776 16.8785 21.9353 17.1537 21.9353C17.4824 21.9353 17.7193 21.7425 17.7193 21.3964C17.7193 21.0765 17.5856 20.9451 17.0925 20.7741C16.5001 20.568 16.2708 20.3533 16.2708 19.8757C16.2708 19.3061 16.6568 19.0125 17.1651 19.0125C17.5205 19.0125 17.8263 19.1614 18.0633 19.4638L17.8684 19.7136C17.6696 19.4725 17.4097 19.3542 17.1728 19.3542C16.8669 19.3542 16.6376 19.5163 16.6376 19.8318C16.6376 20.1824 16.8747 20.2745 17.3294 20.4497C17.8836 20.66 18.09 20.8835 18.09 21.3568C18.09 21.9265 17.7116 22.277 17.1536 22.277C16.7523 22.277 16.4083 22.0843 16.1714 21.7906L16.3664 21.5278Z" fill="white"/>
<path d="M19.1791 19.0695H18.8237V22.2245H19.1791V19.0695Z" fill="white"/>
<path fill-rule="evenodd" clip-rule="evenodd" d="M20.0312 19.0695H20.3868V20.4279H20.8798L21.5716 19.0695H21.9652L21.1855 20.5857L22.0952 22.2245H21.69L20.8798 20.7785H20.3868V22.2245H20.0312V19.0695Z" fill="white"/>
<path d="M27.5694 14.5426H26.1915C26.1915 14.4281 26.2678 13.8038 26.8802 13.8038C27.493 13.8039 27.5694 14.4282 27.5694 14.5426ZM26.8802 16.2761C26.4852 16.2761 26.221 15.9193 26.1839 15.4181H29C29 13.7016 28.4075 12.7246 26.8803 12.7246C25.4356 12.7246 24.7834 13.8162 24.7834 15.04C24.7834 16.2633 25.4355 17.3553 26.8803 17.3553C27.7547 17.3553 28.6223 16.9133 28.9185 15.9619H27.5476C27.5237 16.0011 27.3863 16.2761 26.8802 16.2761ZM23.2269 14.5426H21.8492C21.8492 14.4281 21.9256 13.8038 22.5383 13.8038C23.1506 13.8039 23.2269 14.4282 23.2269 14.5426ZM22.5382 16.2761C22.1429 16.2761 21.8786 15.9193 21.8415 15.4181H24.6576C24.6576 13.7016 24.065 12.7246 22.5382 12.7246C21.0931 12.7246 20.4411 13.8162 20.4411 15.04C20.4411 16.2633 21.093 17.3553 22.5382 17.3553C23.4125 17.3553 24.2798 16.9133 24.5762 15.9619H23.2051C23.1813 16.0011 23.0439 16.2761 22.5382 16.2761ZM9.12658 16.1316H9.12572H9.12459C8.64473 16.1309 8.49575 15.6685 8.49575 15.04C8.49575 14.4113 8.64473 13.9486 9.12459 13.9479H9.12572H9.12658C9.6065 13.9486 9.75563 14.4113 9.75563 15.04C9.75563 15.6685 9.6065 16.1308 9.12658 16.1316ZM9.12572 12.7245C7.68075 12.7245 7.02875 13.8161 7.02875 15.0399C7.02875 16.2632 7.68075 17.3553 9.12572 17.3553C10.5705 17.3553 11.2227 16.2632 11.2227 15.0399C11.2227 13.8161 10.5705 12.7245 9.12572 12.7245ZM15.3797 17.2445H13.9644V16.6841C13.6903 17.1254 13.283 17.3553 12.6972 17.3553C12.0082 17.3553 11.3782 16.8707 11.3782 15.8598V12.8352H12.8454V15.1629C12.8454 15.6441 12.897 16.0126 13.327 16.0126C13.579 16.0126 13.9125 15.868 13.9125 15.1629V12.8352H15.3797V17.2445ZM5.83238 17.4996C6.18336 16.41 7.33692 12.8351 7.33692 12.8351H5.82871L5.1369 15.3965L4.55935 12.8351H3L4.39219 17.0251C4.23458 17.4604 4.04235 17.5308 3.82963 17.5308C3.72086 17.5308 3.50898 17.4966 3.50898 17.4966V18.6473C3.50898 18.6473 3.95934 18.7756 4.23993 18.7756C4.95712 18.7756 5.57364 18.3026 5.83238 17.4996ZM17.1657 15.1629C17.1657 15.5098 17.2357 16.0126 18.0031 16.0126C18.2699 16.0126 18.6775 15.9107 18.6775 15.4602C18.6775 15.146 18.4475 15.0612 17.5365 14.7636C16.6987 14.4916 15.743 14.2281 15.743 13.005C15.743 11.6038 16.7876 11 17.877 11C19.0258 11 20.0407 11.5011 20.0853 12.9796H18.5441C18.5441 12.9796 18.5497 12.9263 18.5497 12.8934C18.5497 12.5433 18.2222 12.3422 17.8698 12.3422C17.6476 12.3422 17.2845 12.4105 17.2845 12.7502C17.3138 13.1837 18.0698 13.2772 18.8182 13.5149C19.5665 13.753 20.3074 14.1523 20.3074 15.2651C20.3074 16.8455 19.0403 17.3553 17.8624 17.3553C17.2451 17.3553 15.5355 17.0928 15.5355 15.1629H17.1657Z" fill="white"/>
</svg>
