<svg width="32" height="32" viewBox="0 0 32 32" fill="none" xmlns="http://www.w3.org/2000/svg">
<rect width="32" height="32" fill="#FF0000"/>
<path fill-rule="evenodd" clip-rule="evenodd" d="M13.7285 18.6654L13.7278 12.4402L19.6719 15.5635L13.7285 18.6654ZM26.78 11.3615C26.78 11.3615 26.5648 9.8348 25.9055 9.1625C25.0688 8.27972 24.1311 8.27557 23.7014 8.22433C20.6228 8 16.0048 8 16.0048 8H15.9952C15.9952 8 11.3773 8 8.29863 8.22433C7.86825 8.27557 6.93119 8.27972 6.09381 9.1625C5.4345 9.8348 5.22 11.3615 5.22 11.3615C5.22 11.3615 5 13.1547 5 14.9473V16.6284C5 18.4217 5.22 20.2142 5.22 20.2142C5.22 20.2142 5.4345 21.7409 6.09381 22.4132C6.93119 23.296 8.0305 23.2683 8.52 23.3604C10.28 23.5307 16 23.5833 16 23.5833C16 23.5833 20.6228 23.5764 23.7014 23.3521C24.1311 23.3002 25.0688 23.296 25.9055 22.4132C26.5648 21.7409 26.78 20.2142 26.78 20.2142C26.78 20.2142 27 18.4217 27 16.6284V14.9473C27 13.1547 26.78 11.3615 26.78 11.3615Z" fill="white"/>
</svg>
