<svg width="32" height="32" viewBox="0 0 32 32" fill="none" xmlns="http://www.w3.org/2000/svg">
<rect width="32" height="32" fill="#FF0000"/>
<path d="M16 5.95652C21.5239 5.95652 26.0435 10.4522 26.0435 16C26.0435 21.5478 21.5478 26.0435 16 26.0435C10.4522 26.0435 5.95652 21.5478 5.95652 16C5.95652 10.4522 10.4761 5.95652 16 5.95652ZM16 5C9.92609 5 5 9.92609 5 16C5 22.0739 9.92609 27 16 27C22.0739 27 27 22.0739 27 16C27 9.92609 22.0739 5 16 5Z" fill="white"/>
<path d="M12.1739 21.5L21.5 15.7609L12.1739 10.5V21.5Z" fill="white"/>
</svg>
