<svg width="32" height="32" viewBox="0 0 32 32" fill="none" xmlns="http://www.w3.org/2000/svg">
<rect width="32" height="32" fill="#0E0E0E"/>
<path d="M4.88823 19V18.1786L8.15456 13.5955H4.88184V12.4545H9.8932V13.2759L6.62367 17.859H9.89959V19H4.88823ZM13.1731 19.0959C12.6681 19.0959 12.2335 18.9936 11.8691 18.7891C11.5069 18.5824 11.2278 18.2905 11.0318 17.9134C10.8358 17.5341 10.7377 17.0856 10.7377 16.5678C10.7377 16.0629 10.8358 15.6197 11.0318 15.2383C11.2278 14.8569 11.5037 14.5597 11.8596 14.3466C12.2175 14.1335 12.6373 14.027 13.1188 14.027C13.4426 14.027 13.7441 14.0792 14.0233 14.1836C14.3045 14.2859 14.5495 14.4403 14.7583 14.647C14.9693 14.8537 15.1333 15.1136 15.2505 15.4268C15.3677 15.7379 15.4263 16.1023 15.4263 16.5199V16.8938H11.2811V16.0501H14.1447C14.1447 15.854 14.1021 15.6804 14.0169 15.5291C13.9316 15.3778 13.8134 15.2596 13.6621 15.1744C13.513 15.087 13.3393 15.0433 13.1412 15.0433C12.9345 15.0433 12.7512 15.0913 12.5914 15.1871C12.4338 15.2809 12.3102 15.4077 12.2207 15.5675C12.1312 15.7251 12.0854 15.9009 12.0833 16.0948V16.897C12.0833 17.1399 12.128 17.3498 12.2175 17.5266C12.3091 17.7035 12.438 17.8398 12.6042 17.9357C12.7704 18.0316 12.9675 18.0795 13.1955 18.0795C13.3468 18.0795 13.4853 18.0582 13.611 18.0156C13.7367 17.973 13.8443 17.9091 13.9338 17.8239C14.0233 17.7386 14.0914 17.6342 14.1383 17.5107L15.3976 17.5938C15.3336 17.8963 15.2026 18.1605 15.0044 18.3864C14.8084 18.6101 14.5549 18.7848 14.2438 18.9105C13.9348 19.0341 13.5779 19.0959 13.1731 19.0959ZM18.1238 19.0799C17.7509 19.0799 17.4132 18.984 17.1106 18.7923C16.8102 18.5984 16.5716 18.3139 16.3947 17.9389C16.22 17.5618 16.1326 17.0994 16.1326 16.5518C16.1326 15.9893 16.2232 15.5217 16.4043 15.1488C16.5854 14.7738 16.8262 14.4936 17.1266 14.3082C17.4292 14.1207 17.7605 14.027 18.1206 14.027C18.3954 14.027 18.6245 14.0739 18.8077 14.1676C18.9931 14.2592 19.1422 14.3743 19.2551 14.5128C19.3702 14.6491 19.4576 14.7834 19.5172 14.9155H19.5588V12.4545H20.9171V19H19.5748V18.2138H19.5172C19.4533 18.3501 19.3627 18.4854 19.2456 18.6197C19.1305 18.7518 18.9803 18.8615 18.7949 18.9489C18.6117 19.0362 18.388 19.0799 18.1238 19.0799ZM18.5552 17.9964C18.7747 17.9964 18.96 17.9368 19.1113 17.8175C19.2647 17.696 19.3819 17.5266 19.4629 17.3093C19.546 17.092 19.5875 16.8374 19.5875 16.5455C19.5875 16.2536 19.5471 16 19.4661 15.7848C19.3851 15.5696 19.2679 15.4034 19.1145 15.2862C18.9611 15.169 18.7747 15.1104 18.5552 15.1104C18.3315 15.1104 18.1429 15.1712 17.9895 15.2926C17.8361 15.4141 17.72 15.5824 17.6412 15.7976C17.5623 16.0128 17.5229 16.2621 17.5229 16.5455C17.5229 16.831 17.5623 17.0835 17.6412 17.3029C17.7221 17.5202 17.8382 17.6907 17.9895 17.8143C18.1429 17.9357 18.3315 17.9964 18.5552 17.9964Z" fill="white"/>
<path d="M23.9797 18.6452V14.1197H25.1238V18.6452H23.9797ZM22.289 16.9545V15.8104H26.8145V16.9545H22.289Z" fill="#ED3624"/>
</svg>
