<svg width="32" height="32" viewBox="0 0 32 32" fill="none" xmlns="http://www.w3.org/2000/svg">
<rect width="32" height="32" fill="#242424"/>
<path fill-rule="evenodd" clip-rule="evenodd" d="M14.3186 23.9425C14.3737 24.2088 14.4013 24.3419 14.318 24.4354C14.2347 24.5289 14.0957 24.5166 13.818 24.4918C12.2629 24.3534 11.3931 24.0682 10.7129 23.7865C9.58137 23.3178 8.68237 22.4188 8.21367 21.2872C7.93189 20.607 7.64674 19.7372 7.50825 18.182C7.48351 17.9043 7.47114 17.7654 7.56465 17.6821C7.65816 17.5988 7.7913 17.6264 8.05757 17.6815C11.1967 18.3312 13.6689 20.8034 14.3186 23.9425ZM17.3245 24.5491C17.1084 24.5592 17.0004 24.5642 16.9262 24.5027C16.852 24.4412 16.8361 24.3289 16.8043 24.1044C16.1524 19.4945 12.5055 15.8476 7.8957 15.1957C7.6711 15.164 7.5588 15.148 7.49731 15.0738C7.43583 14.9996 7.44087 14.8916 7.45095 14.6756C7.49316 13.7708 7.57872 13.0599 7.6887 12.4802C7.72488 12.2894 7.74297 12.194 7.8184 12.1362C7.89382 12.0784 7.99153 12.0857 8.18694 12.1004C14.4388 12.5704 19.4296 17.5612 19.8996 23.8132C19.9143 24.0086 19.9217 24.1063 19.8638 24.1817C19.806 24.2571 19.7106 24.2752 19.5198 24.3114C18.9401 24.4213 18.2292 24.5069 17.3245 24.5491ZM22.9288 22.6356C22.6829 22.9047 22.5599 23.0392 22.4102 22.9945C22.2605 22.9497 22.2285 22.7507 22.1643 22.3528C21.1303 15.9366 16.0636 10.8699 9.64743 9.83577C9.24949 9.77163 9.05052 9.73957 9.0058 9.58986C8.96106 9.44014 9.09559 9.31718 9.36465 9.07127C9.75712 8.71254 10.2123 8.42093 10.7129 8.21355C11.6606 7.82101 12.976 7.42202 16 7.42202C19.0241 7.42202 20.3397 7.82103 21.2874 8.21355C22.4189 8.68224 23.3179 9.58125 23.7866 10.7128C24.1791 11.6603 24.578 12.9758 24.578 16C24.578 19.0242 24.1791 20.3397 23.7866 21.2872C23.5793 21.788 23.2876 22.2432 22.9288 22.6356ZM5 16C5 12.7198 5.44012 11.0797 5.97601 9.78592C6.69053 8.06092 8.06104 6.69041 9.78604 5.97589C11.0798 5.44 12.7198 5 16 5C19.2803 5 20.9205 5.44 22.2142 5.97589C23.9393 6.69041 25.3097 8.06092 26.0243 9.78592C26.5602 11.0797 27 12.7198 27 16C27 19.2803 26.5602 20.9204 26.0243 22.2141C25.3097 23.9391 23.9393 25.3097 22.2142 26.0242C20.9205 26.56 19.2803 27.0001 16 27.0001C12.7198 27.0001 11.0798 26.56 9.78604 26.0242C8.06104 25.3097 6.69053 23.9391 5.97601 22.2141C5.44012 20.9204 5 19.2803 5 16Z" fill="white"/>
</svg>
