<svg id="Layer_1" data-name="Layer 1" xmlns="http://www.w3.org/2000/svg" width="70" height="50" viewBox="0 0 70 50"><rect width="35" height="50" fill="#e5e5e6"/><path d="M14,10H35a0,0,0,0,1,0,0V50a0,0,0,0,1,0,0H10a0,0,0,0,1,0,0V14A4,4,0,0,1,14,10Z" fill="#fff"/><circle cx="18" cy="18" r="3" fill="#e5e5e6"/><circle cx="27" cy="18" r="3" fill="#e5e5e6"/><path d="M18,28H35a0,0,0,0,1,0,0v3a0,0,0,0,1,0,0H18a1,1,0,0,1-1-1V29A1,1,0,0,1,18,28Z" fill="#38393e"/><path d="M18,34H35a0,0,0,0,1,0,0v3a0,0,0,0,1,0,0H18a1,1,0,0,1-1-1V35A1,1,0,0,1,18,34Z" fill="#38393e"/><path d="M18,40H35a0,0,0,0,1,0,0v3a0,0,0,0,1,0,0H18a1,1,0,0,1-1-1V41A1,1,0,0,1,18,40Z" fill="#38393e"/><rect x="35" width="35" height="50" fill="#22232a"/><path d="M49,10H70V50H45V14A4,4,0,0,1,49,10Z" fill="#5a5c63"/><circle cx="53" cy="18" r="3" fill="#22232a"/><circle cx="62" cy="18" r="3" fill="#22232a"/><path d="M53,28H70a0,0,0,0,1,0,0v3a0,0,0,0,1,0,0H53a1,1,0,0,1-1-1V29A1,1,0,0,1,53,28Z" fill="#fafaff"/><path d="M53,34H70a0,0,0,0,1,0,0v3a0,0,0,0,1,0,0H53a1,1,0,0,1-1-1V35A1,1,0,0,1,53,34Z" fill="#fafaff"/><path d="M53,40H70a0,0,0,0,1,0,0v3a0,0,0,0,1,0,0H53a1,1,0,0,1-1-1V41A1,1,0,0,1,53,40Z" fill="#fafaff"/></svg>