<svg id="Layer_1" data-name="Layer 1" xmlns="http://www.w3.org/2000/svg" width="70" height="50" viewBox="0 0 70 50"><rect width="70" height="50" fill="#e5e5e6"/><path d="M14,10H70a0,0,0,0,1,0,0V50a0,0,0,0,1,0,0H10a0,0,0,0,1,0,0V14A4,4,0,0,1,14,10Z" fill="#fff"/><circle cx="18" cy="18" r="3" fill="#e5e5e6"/><circle cx="27" cy="18" r="3" fill="#e5e5e6"/><circle cx="36" cy="18" r="3" fill="#e5e5e6"/><rect x="17" y="28" width="46" height="3" rx="1" fill="#38393e"/><rect x="17" y="34" width="46" height="3" rx="1" fill="#38393e"/><rect x="17" y="40" width="30" height="3" rx="1" fill="#38393e"/></svg>