<svg width="1032" height="257" viewBox="0 0 1032 257" fill="none" xmlns="http://www.w3.org/2000/svg">
<path d="M22.8185 67.8468V105.556H0.152124V0H66.7822C72.5628 0 77.3801 1.0601 81.2339 3.18031C85.0877 5.30053 88.1808 8.12748 90.5134 11.6612C92.9474 15.0939 94.6207 19.0819 95.5335 23.6252C96.5476 28.1685 97.0547 32.8633 97.0547 37.7095C97.0547 41.849 96.2434 45.736 94.6207 49.3707C92.9981 53.0053 90.8176 56.1856 88.0794 58.9116C85.3412 61.6376 82.1466 63.8083 78.4956 65.4237C74.8447 67.0391 70.9402 67.8468 66.7822 67.8468H22.8185ZM74.3883 37.7095V30.1373C74.3883 28.1181 73.6277 26.3512 72.1065 24.8368C70.5852 23.3223 68.8105 22.5651 66.7822 22.5651H22.8185V45.1302H66.7822C68.8105 45.1302 70.5852 44.4235 72.1065 43.01C73.6277 41.4956 74.3883 39.7287 74.3883 37.7095Z" fill="black"/>
<path d="M212.5 75.419C212.5 79.5584 211.688 83.4455 210.066 87.0802C208.443 90.7148 206.263 93.8951 203.524 96.6211C200.786 99.3471 197.592 101.518 193.941 103.133C190.29 104.749 186.385 105.556 182.227 105.556H138.568C134.41 105.556 130.454 104.799 126.702 103.285C123.051 101.669 119.857 99.4985 117.118 96.7725C114.38 94.0466 112.2 90.8662 110.577 87.2316C109.056 83.496 108.295 79.5584 108.295 75.419H130.962C130.962 77.5392 131.671 79.3565 133.091 80.871C134.613 82.2844 136.438 82.9912 138.568 82.9912H182.227C184.458 82.9912 186.081 82.4863 187.095 81.4767C188.211 80.4671 188.971 79.2051 189.377 77.6906C189.783 76.1762 189.935 74.5608 189.833 72.8444C189.833 71.0271 189.833 69.3612 189.833 67.8468C189.833 65.8275 189.073 64.1112 187.551 62.6977C186.03 61.1833 184.255 60.4261 182.227 60.4261H138.568C134.41 60.4261 130.454 59.6184 126.702 58.003C123.051 56.3876 119.857 54.2169 117.118 51.4909C114.38 48.7649 112.2 45.5846 110.577 41.9499C109.056 38.2143 108.295 34.2768 108.295 30.1373C108.295 25.9978 109.106 22.1108 110.729 18.4761C112.352 14.8415 114.532 11.6612 117.27 8.93518C120.009 6.20919 123.203 4.0385 126.854 2.4231C130.505 0.807698 134.41 0 138.568 0H182.227C186.385 0 190.29 0.807698 193.941 2.4231C197.693 3.93754 200.938 6.05775 203.677 8.78373C206.415 11.5097 208.544 14.7405 210.066 18.4761C211.688 22.1108 212.5 25.9978 212.5 30.1373H189.833C189.833 28.1181 189.073 26.4017 187.551 24.9882C186.03 23.4738 184.255 22.7166 182.227 22.7166H138.568C136.539 22.7166 134.765 23.4738 133.243 24.9882C131.722 26.4017 130.962 28.1181 130.962 30.1373C130.962 33.3681 132.128 35.6398 134.46 36.9523C136.894 38.1638 144.146 38.7191 156.214 38.6181C168.384 38.4162 177.663 38.4162 184.053 38.6181C190.442 38.8201 195.563 40.3345 199.417 43.1615C203.372 45.8875 206.516 49.825 208.849 54.9741C211.283 60.0222 212.5 66.8372 212.5 75.419Z" fill="black"/>
<path d="M306.628 67.8468H253.537C249.379 67.8468 245.475 67.0391 241.824 65.4237C238.173 63.8083 234.978 61.6376 232.24 58.9116C229.502 56.1856 227.321 53.0053 225.699 49.3707C224.177 45.736 223.417 41.849 223.417 37.7095V0.151442H246.083V30.1373C246.083 31.5508 246.033 33.1662 245.931 34.9835C245.931 36.6999 246.134 38.3153 246.54 39.8297C246.945 41.3441 247.655 42.6567 248.669 43.7672C249.785 44.7769 251.408 45.2817 253.537 45.2817H306.628V0.151442H329.295V75.419C329.295 79.5584 328.483 83.4455 326.861 87.0802C325.238 90.7148 323.058 93.8951 320.319 96.6211C317.581 99.3471 314.387 101.518 310.736 103.133C307.085 104.749 303.18 105.556 299.022 105.556H234.37V82.9912H299.022C301.253 82.9912 302.876 82.4863 303.89 81.4767C305.006 80.4671 305.766 79.2051 306.172 77.6906C306.578 76.1762 306.73 74.5608 306.628 72.8444C306.628 71.0271 306.628 69.3612 306.628 67.8468Z" fill="black"/>
<path d="M444.25 75.419C444.25 79.5584 443.439 83.4455 441.816 87.0802C440.193 90.7148 438.013 93.8951 435.275 96.6211C432.537 99.3471 429.342 101.518 425.691 103.133C422.04 104.749 418.136 105.556 413.978 105.556H370.318C366.16 105.556 362.205 104.799 358.452 103.285C354.802 101.669 351.607 99.4985 348.869 96.7725C346.13 94.0466 343.95 90.8662 342.327 87.2316C340.806 83.496 340.046 79.5584 340.046 75.419H362.712C362.712 77.5392 363.422 79.3565 364.842 80.871C366.363 82.2844 368.188 82.9912 370.318 82.9912H413.978C416.209 82.9912 417.831 82.4863 418.845 81.4767C419.961 80.4671 420.722 79.2051 421.127 77.6906C421.533 76.1762 421.685 74.5608 421.584 72.8444C421.584 71.0271 421.584 69.3612 421.584 67.8468C421.584 65.8275 420.823 64.1112 419.302 62.6977C417.781 61.1833 416.006 60.4261 413.978 60.4261H370.318C366.16 60.4261 362.205 59.6184 358.452 58.003C354.802 56.3876 351.607 54.2169 348.869 51.4909C346.13 48.7649 343.95 45.5846 342.327 41.9499C340.806 38.2143 340.046 34.2768 340.046 30.1373C340.046 25.9978 340.857 22.1108 342.48 18.4761C344.102 14.8415 346.283 11.6612 349.021 8.93518C351.759 6.20919 354.954 4.0385 358.605 2.4231C362.256 0.807698 366.16 0 370.318 0H413.978C418.136 0 422.04 0.807698 425.691 2.4231C429.443 3.93754 432.689 6.05775 435.427 8.78373C438.165 11.5097 440.295 14.7405 441.816 18.4761C443.439 22.1108 444.25 25.9978 444.25 30.1373H421.584C421.584 28.1181 420.823 26.4017 419.302 24.9882C417.781 23.4738 416.006 22.7166 413.978 22.7166H370.318C368.29 22.7166 366.515 23.4738 364.994 24.9882C363.473 26.4017 362.712 28.1181 362.712 30.1373C362.712 33.3681 363.878 35.6398 366.211 36.9523C368.645 38.1638 375.896 38.7191 387.964 38.6181C400.134 38.4162 409.414 38.4162 415.803 38.6181C422.192 38.8201 427.314 40.3345 431.167 43.1615C435.123 45.8875 438.267 49.825 440.599 54.9741C443.033 60.0222 444.25 66.8372 444.25 75.419Z" fill="black"/>
<path d="M538.379 67.8468H485.288C481.13 67.8468 477.225 67.0391 473.574 65.4237C469.923 63.8083 466.729 61.6376 463.99 58.9116C461.252 56.1856 459.072 53.0053 457.449 49.3707C455.928 45.736 455.167 41.849 455.167 37.7095V0.151442H477.834V30.1373C477.834 31.5508 477.783 33.1662 477.682 34.9835C477.682 36.6999 477.884 38.3153 478.29 39.8297C478.696 41.3441 479.406 42.6567 480.42 43.7672C481.535 44.7769 483.158 45.2817 485.288 45.2817H538.379V0.151442H561.045V75.419C561.045 79.5584 560.234 83.4455 558.611 87.0802C556.988 90.7148 554.808 93.8951 552.07 96.6211C549.332 99.3471 546.137 101.518 542.486 103.133C538.835 104.749 534.931 105.556 530.773 105.556H466.12V82.9912H530.773C533.004 82.9912 534.626 82.4863 535.641 81.4767C536.756 80.4671 537.517 79.2051 537.922 77.6906C538.328 76.1762 538.48 74.5608 538.379 72.8444C538.379 71.0271 538.379 69.3612 538.379 67.8468Z" fill="black"/>
<path d="M676 75.419C676 79.5584 675.189 83.4455 673.566 87.0802C671.944 90.7148 669.763 93.8951 667.025 96.6211C664.287 99.3471 661.092 101.518 657.441 103.133C653.791 104.749 649.886 105.556 645.728 105.556H602.069C597.911 105.556 593.955 104.799 590.203 103.285C586.552 101.669 583.357 99.4985 580.619 96.7725C577.881 94.0466 575.7 90.8662 574.078 87.2316C572.557 83.496 571.796 79.5584 571.796 75.419H594.462C594.462 77.5392 595.172 79.3565 596.592 80.871C598.113 82.2844 599.939 82.9912 602.069 82.9912H645.728C647.959 82.9912 649.582 82.4863 650.596 81.4767C651.711 80.4671 652.472 79.2051 652.878 77.6906C653.283 76.1762 653.435 74.5608 653.334 72.8444C653.334 71.0271 653.334 69.3612 653.334 67.8468C653.334 65.8275 652.573 64.1112 651.052 62.6977C649.531 61.1833 647.756 60.4261 645.728 60.4261H602.069C597.911 60.4261 593.955 59.6184 590.203 58.003C586.552 56.3876 583.357 54.2169 580.619 51.4909C577.881 48.7649 575.7 45.5846 574.078 41.9499C572.557 38.2143 571.796 34.2768 571.796 30.1373C571.796 25.9978 572.607 22.1108 574.23 18.4761C575.853 14.8415 578.033 11.6612 580.771 8.93518C583.509 6.20919 586.704 4.0385 590.355 2.4231C594.006 0.807698 597.911 0 602.069 0H645.728C649.886 0 653.791 0.807698 657.441 2.4231C661.194 3.93754 664.439 6.05775 667.177 8.78373C669.915 11.5097 672.045 14.7405 673.566 18.4761C675.189 22.1108 676 25.9978 676 30.1373H653.334C653.334 28.1181 652.573 26.4017 651.052 24.9882C649.531 23.4738 647.756 22.7166 645.728 22.7166H602.069C600.04 22.7166 598.265 23.4738 596.744 24.9882C595.223 26.4017 594.462 28.1181 594.462 30.1373C594.462 33.3681 595.629 35.6398 597.961 36.9523C600.395 38.1638 607.646 38.7191 619.715 38.6181C631.885 38.4162 641.164 38.4162 647.553 38.6181C653.943 38.8201 659.064 40.3345 662.918 43.1615C666.873 45.8875 670.017 49.825 672.349 54.9741C674.783 60.0222 676 66.8372 676 75.419Z" fill="black"/>
<path d="M791.731 0.151442V22.7166H750.049V105.556H727.383V22.7166H685.701V0.151442H791.731Z" fill="black"/>
<path d="M907.808 105.556H801.017V82.9912H884.989V63.4549H808.928V40.7384H884.989V22.7166H801.017V0H907.808V105.556Z" fill="black"/>
<path d="M1032 0V105.556H1009.33V36.1951L984.994 67.5439C983.878 68.8564 982.509 69.9165 980.887 70.7242C979.365 71.431 977.743 71.7843 976.019 71.7843C974.295 71.7843 972.672 71.431 971.151 70.7242C969.629 69.9165 968.311 68.8564 967.195 67.5439L942.551 36.1951V105.556H919.885V0H942.551L976.019 42.4042L1009.33 0H1032Z" fill="black"/>
<path d="M57.8069 219.291H22.6664V257H0V151.444H73.4756C78.952 151.444 83.6171 152.453 87.4709 154.473C91.3247 156.391 94.4686 159.016 96.9026 162.348C99.3365 165.679 101.111 169.566 102.227 174.009C103.342 178.35 103.9 182.944 103.9 187.79C103.9 194.757 102.075 200.966 98.4238 206.418C94.7728 211.87 89.5499 215.706 82.7551 217.928L103.9 257H78.0393L57.8069 219.291ZM81.0817 189.153V181.581C81.0817 179.562 80.3211 177.795 78.7999 176.281C77.2787 174.766 75.5039 174.009 73.4756 174.009H22.6664V196.725H73.4756C75.6053 196.725 77.3801 196.019 78.7999 194.605C80.3211 193.091 81.0817 191.273 81.0817 189.153Z" fill="black"/>
<path d="M221.025 257H114.234V234.435H198.206V214.899H122.144V192.182H198.206V174.16H114.234V151.444H221.025V257Z" fill="black"/>
<path d="M337.763 234.283V257H262.005C257.847 257 253.943 256.192 250.292 254.577C246.641 252.962 243.446 250.791 240.708 248.065C237.97 245.339 235.789 242.159 234.167 238.524C232.544 234.889 231.733 231.002 231.733 226.863V181.581C231.733 177.442 232.544 173.555 234.167 169.92C235.789 166.285 237.97 163.105 240.708 160.379C243.446 157.653 246.641 155.482 250.292 153.867C253.943 152.251 257.847 151.444 262.005 151.444H337.763V174.009H262.005C259.977 174.009 258.202 174.766 256.681 176.281C255.16 177.795 254.399 179.562 254.399 181.581V226.863C254.399 228.882 255.16 230.649 256.681 232.163C258.202 233.577 259.977 234.283 262.005 234.283H337.763Z" fill="black"/>
<path d="M449.994 181.732V226.863C449.994 231.002 449.183 234.94 447.56 238.675C446.039 242.31 443.909 245.49 441.171 248.216C438.433 250.942 435.187 253.113 431.435 254.728C427.784 256.243 423.879 257 419.721 257H378.04C373.882 257 369.926 256.243 366.174 254.728C362.523 253.113 359.328 250.942 356.59 248.216C353.852 245.49 351.672 242.31 350.049 238.675C348.528 234.94 347.767 231.002 347.767 226.863V181.732C347.767 177.593 348.528 173.706 350.049 170.071C351.672 166.336 353.852 163.105 356.59 160.379C359.328 157.653 362.523 155.533 366.174 154.018C369.926 152.403 373.882 151.595 378.04 151.595H419.721C423.879 151.595 427.784 152.403 431.435 154.018C435.187 155.533 438.433 157.653 441.171 160.379C443.909 163.105 446.039 166.336 447.56 170.071C449.183 173.706 449.994 177.593 449.994 181.732ZM427.328 226.863V181.732C427.328 179.713 426.567 177.946 425.046 176.432C423.524 174.918 421.75 174.16 419.721 174.16H378.04C376.011 174.16 374.236 174.918 372.715 176.432C371.194 177.946 370.433 179.713 370.433 181.732V226.863C370.433 228.882 371.194 230.649 372.715 232.163C374.236 233.678 376.011 234.435 378.04 234.435H419.721C421.75 234.435 423.524 233.678 425.046 232.163C426.567 230.649 427.328 228.882 427.328 226.863ZM399.337 178.855L406.791 195.362L423.829 197.634L411.811 210.052L414.549 227.62L399.337 219.291L384.125 227.62L386.711 210.052L374.389 197.634L391.274 195.362L399.337 178.855Z" fill="black"/>
<path d="M506.902 219.442L486.518 257H460.809L481.802 217.928C477.34 216.514 473.739 214.596 471.001 212.173C468.263 209.75 466.133 206.973 464.612 203.843C463.091 200.713 462.077 197.281 461.57 193.545C461.062 189.809 460.809 185.872 460.809 181.732C460.809 177.593 461.62 173.706 463.243 170.071C464.866 166.437 467.046 163.256 469.784 160.53C472.522 157.804 475.717 155.634 479.368 154.018C483.019 152.403 486.923 151.595 491.081 151.595H566.839V257H544.02V219.442H506.902ZM544.02 196.877V174.16H491.081C489.053 174.16 487.278 174.918 485.757 176.432C484.337 177.946 483.627 179.713 483.627 181.732V189.305C483.627 191.324 484.337 193.091 485.757 194.605C487.278 196.12 489.053 196.877 491.081 196.877H544.02Z" fill="black"/>
<path d="M577.88 151.444H653.181C657.339 151.444 661.243 152.251 664.894 153.867C668.545 155.482 671.74 157.653 674.478 160.379C677.216 163.105 679.397 166.285 681.019 169.92C682.642 173.555 683.453 177.442 683.453 181.581V226.863C683.453 231.002 682.642 234.889 681.019 238.524C679.397 242.159 677.216 245.339 674.478 248.065C671.74 250.791 668.545 252.962 664.894 254.577C661.243 256.192 657.339 257 653.181 257H577.88V151.444ZM660.787 226.863V181.581C660.787 179.562 660.026 177.845 658.505 176.432C656.984 174.918 655.209 174.16 653.181 174.16H600.546V234.435H653.181C655.209 234.435 656.984 233.678 658.505 232.163C660.026 230.649 660.787 228.882 660.787 226.863Z" fill="black"/>
<path d="M798.412 226.863C798.412 231.002 797.601 234.889 795.978 238.524C794.356 242.159 792.175 245.339 789.437 248.065C786.699 250.791 783.504 252.962 779.853 254.577C776.202 256.192 772.298 257 768.14 257H724.48C720.322 257 716.367 256.243 712.615 254.728C708.964 253.113 705.769 250.942 703.031 248.216C700.293 245.49 698.112 242.31 696.49 238.675C694.968 234.94 694.208 231.002 694.208 226.863H716.874C716.874 228.983 717.584 230.8 719.004 232.315C720.525 233.728 722.351 234.435 724.48 234.435H768.14C770.371 234.435 771.993 233.93 773.008 232.92C774.123 231.911 774.884 230.649 775.289 229.134C775.695 227.62 775.847 226.005 775.746 224.288C775.746 222.471 775.746 220.805 775.746 219.291C775.746 217.271 774.985 215.555 773.464 214.141C771.943 212.627 770.168 211.87 768.14 211.87H724.48C720.322 211.87 716.367 211.062 712.615 209.447C708.964 207.831 705.769 205.661 703.031 202.935C700.293 200.209 698.112 197.028 696.49 193.394C694.968 189.658 694.208 185.72 694.208 181.581C694.208 177.442 695.019 173.555 696.642 169.92C698.264 166.285 700.445 163.105 703.183 160.379C705.921 157.653 709.116 155.482 712.767 153.867C716.418 152.251 720.322 151.444 724.48 151.444H768.14C772.298 151.444 776.202 152.251 779.853 153.867C783.606 155.381 786.851 157.501 789.589 160.227C792.327 162.953 794.457 166.184 795.978 169.92C797.601 173.555 798.412 177.442 798.412 181.581H775.746C775.746 179.562 774.985 177.845 773.464 176.432C771.943 174.918 770.168 174.16 768.14 174.16H724.48C722.452 174.16 720.677 174.918 719.156 176.432C717.635 177.845 716.874 179.562 716.874 181.581C716.874 184.812 718.04 187.083 720.373 188.396C722.807 189.608 730.058 190.163 742.127 190.062C754.296 189.86 763.576 189.86 769.965 190.062C776.354 190.264 781.476 191.778 785.33 194.605C789.285 197.331 792.429 201.269 794.761 206.418C797.195 211.466 798.412 218.281 798.412 226.863Z" fill="black"/>
</svg>
