<svg xmlns="http://www.w3.org/2000/svg" viewBox="0 0 328.08 81.29"><defs><style>.cls-1{fill:#1d1d1b;}</style></defs><g id="Слой_2" data-name="Слой 2"><g id="Слой_1-2" data-name="Слой 1"><path class="cls-1" d="M51.14,6.6h-40A11,11,0,0,0,3,9.6a11,11,0,0,0-3,8.16V70a14.36,14.36,0,0,0,.72,5A6.43,6.43,0,0,0,2.9,78a8.64,8.64,0,0,0,3.54,1.5,24.74,24.74,0,0,0,4.86.42,43.44,43.44,0,0,0,5.58-.36A32.6,32.6,0,0,0,21,78.84V53.52H42a7.24,7.24,0,0,0,5.34-2q2-2,2-6.54a16,16,0,0,0-.66-4.56A11.84,11.84,0,0,0,47,37H20.78V23.4H46a7.24,7.24,0,0,0,5.34-2q2-2,2-6.66a16.43,16.43,0,0,0-.66-4.62A14.59,14.59,0,0,0,51.14,6.6Z"/><path class="cls-1" d="M114.14,22.56a8.08,8.08,0,0,0-3.54-1.44,29,29,0,0,0-4.74-.36,39.7,39.7,0,0,0-5.34.36,26.81,26.81,0,0,0-3.78.72v42a15.36,15.36,0,0,1-2.7,1,17.1,17.1,0,0,1-4.5.48c-3,0-5.38-.7-7-2.1s-2.43-3.73-2.4-7V30.36a13,13,0,0,0-.78-4.86,7,7,0,0,0-2.22-2.94,8.08,8.08,0,0,0-3.54-1.44,29,29,0,0,0-4.74-.36,39.7,39.7,0,0,0-5.34.36,26.81,26.81,0,0,0-3.78.72V56.16A27.47,27.47,0,0,0,61.9,67.62,19.72,19.72,0,0,0,68,75.36a26.5,26.5,0,0,0,9.42,4.44,46.5,46.5,0,0,0,12,1.44,55.06,55.06,0,0,0,12.66-1.38,33.22,33.22,0,0,0,10-4,9.83,9.83,0,0,0,5-9V30.36a12.78,12.78,0,0,0-.78-4.86,7,7,0,0,0-2.16-2.94Z"/><path class="cls-1" d="M181.94,27.18a27,27,0,0,0-9.12-5.94,29.56,29.56,0,0,0-10.92-2,34.75,34.75,0,0,0-5.94.48,29.41,29.41,0,0,0-5.7,1.68V9.6a13.82,13.82,0,0,0-.72-4.86,6.65,6.65,0,0,0-2.16-2.94A8.08,8.08,0,0,0,143.84.36,29,29,0,0,0,139.1,0a34.79,34.79,0,0,0-5.4.42,31.09,31.09,0,0,0-3.84.78v64q0,5.88,5.28,9.6a35.05,35.05,0,0,0,9.36,4.62,42.2,42.2,0,0,0,13.44,1.86,42.81,42.81,0,0,0,13.38-2,27.87,27.87,0,0,0,10.26-5.82,26,26,0,0,0,6.54-9.66,36.59,36.59,0,0,0,2.34-13.62,36.27,36.27,0,0,0-2.28-13.32,27.74,27.74,0,0,0-6.24-9.68Zm-15.42,34.2a10.46,10.46,0,0,1-3.84,2.91,10.31,10.31,0,0,1-4.74.87,16.7,16.7,0,0,1-4.62-.54,12.31,12.31,0,0,1-3.18-1.38V37.08a23.93,23.93,0,0,1,3.78-1.44,16,16,0,0,1,4.14-.48,10.39,10.39,0,0,1,8.4,3.72q3.12,3.72,3.12,11.28T166.52,61.38Z"/><path class="cls-1" d="M252.08,27.66a29.16,29.16,0,0,0-9.9-6.24,35.4,35.4,0,0,0-12.84-2.22,36.21,36.21,0,0,0-12.84,2.16,28.14,28.14,0,0,0-9.9,6.18,27.41,27.41,0,0,0-6.42,9.78,34.59,34.59,0,0,0-2.28,12.84,35,35,0,0,0,2.28,13,27.41,27.41,0,0,0,6.42,9.78,28.14,28.14,0,0,0,9.9,6.18,36.21,36.21,0,0,0,12.84,2.16,38.4,38.4,0,0,0,12.84-2,27.3,27.3,0,0,0,9.9-6,27,27,0,0,0,6.42-9.78,36.37,36.37,0,0,0,2.28-13.26,34.33,34.33,0,0,0-2.28-12.72,27.72,27.72,0,0,0-6.42-9.86ZM237.2,61.32a9,9,0,0,1-3.34,3,8.86,8.86,0,0,1-4.4,1,9.17,9.17,0,0,1-7.86-3.9q-2.82-3.9-2.82-11.22t2.76-11.1a9.75,9.75,0,0,1,12.16-2.87,9.84,9.84,0,0,1,3.44,2.87q2.76,3.9,2.76,11.1T237.2,61.32Z"/><path class="cls-1" d="M320.78,25.14q-7.32-5.94-20.88-5.94A49,49,0,0,0,286.16,21a34.56,34.56,0,0,0-10.26,4.68,14.53,14.53,0,0,0-3.78,3.72,9.11,9.11,0,0,0-1.38,5.28v36a12.56,12.56,0,0,0,.78,4.86,6.86,6.86,0,0,0,2.22,2.94,8,8,0,0,0,3.54,1.44,28.85,28.85,0,0,0,4.74.36,39.81,39.81,0,0,0,5.34-.36,27.37,27.37,0,0,0,3.78-.72V37.56a12,12,0,0,1,4-1.8,18.89,18.89,0,0,1,4.74-.6,8.67,8.67,0,0,1,5.7,1.74q2.1,1.74,2.1,5.46V70.68a12.56,12.56,0,0,0,.78,4.86,6.86,6.86,0,0,0,2.22,2.94,8,8,0,0,0,3.54,1.44,28.85,28.85,0,0,0,4.74.36,39.81,39.81,0,0,0,5.34-.36,27.37,27.37,0,0,0,3.78-.72V41.64Q328.1,31.08,320.78,25.14Z"/></g></g></svg>