<svg width="912" height="229" viewBox="0 0 912 229" fill="none" xmlns="http://www.w3.org/2000/svg">
<path d="M20.1532 61.0652V94.5195H0.134355V0.874268H58.9817C64.0872 0.874268 68.3418 1.81475 71.7454 3.69571C75.1491 5.57668 77.881 8.08464 79.9411 11.2196C82.0907 14.265 83.5687 17.803 84.3748 21.8336C85.2705 25.8643 85.7183 30.0292 85.7183 34.3286C85.7183 38.001 85.0018 41.4494 83.5686 44.6739C82.1355 47.8984 80.2098 50.7199 77.7914 53.1383C75.373 55.5567 72.5516 57.4824 69.327 58.9155C66.1025 60.3486 62.6541 61.0652 58.9817 61.0652H20.1532ZM65.6995 34.3286V27.6109C65.6995 25.8195 65.0277 24.252 63.6842 22.9084C62.3406 21.5649 60.7731 20.8931 58.9817 20.8931H20.1532V40.912H58.9817C60.7731 40.912 62.3406 40.285 63.6842 39.031C65.0277 37.6875 65.6995 36.12 65.6995 34.3286Z" fill="white"/>
<path d="M187.679 67.7829C187.679 71.4553 186.962 74.9037 185.529 78.1283C184.096 81.3528 182.17 84.1742 179.752 86.5926C177.334 89.011 174.512 90.9367 171.288 92.3699C168.063 93.803 164.615 94.5195 160.942 94.5195H122.382C118.71 94.5195 115.217 93.8478 111.903 92.5042C108.678 91.0711 105.857 89.1453 103.438 86.727C101.02 84.3086 99.0943 81.4871 97.6612 78.2626C96.3177 74.9485 95.6459 71.4553 95.6459 67.7829H115.665C115.665 69.6639 116.292 71.2762 117.546 72.6197C118.889 73.8737 120.502 74.5007 122.382 74.5007H160.942C162.913 74.5007 164.346 74.0528 165.242 73.1571C166.227 72.2614 166.899 71.1418 167.257 69.7983C167.615 68.4547 167.75 67.0216 167.66 65.4989C167.66 63.8866 167.66 62.4087 167.66 61.0652C167.66 59.2738 166.988 57.7511 165.645 56.4971C164.301 55.1536 162.734 54.4818 160.942 54.4818H122.382C118.71 54.4818 115.217 53.7653 111.903 52.3321C108.678 50.899 105.857 48.9733 103.438 46.5549C101.02 44.1365 99.0943 41.3151 97.6612 38.0905C96.3177 34.7765 95.6459 31.2832 95.6459 27.6109C95.6459 23.9385 96.3624 20.4901 97.7955 17.2655C99.2287 14.041 101.154 11.2196 103.573 8.8012C105.991 6.38281 108.813 4.45706 112.037 3.02394C115.262 1.59082 118.71 0.874268 122.382 0.874268H160.942C164.615 0.874268 168.063 1.59082 171.288 3.02394C174.602 4.36749 177.468 6.24846 179.886 8.66684C182.305 11.0852 184.186 13.9515 185.529 17.2655C186.962 20.4901 187.679 23.9385 187.679 27.6109H167.66C167.66 25.8195 166.988 24.2968 165.645 23.0428C164.301 21.6993 162.734 21.0275 160.942 21.0275H122.382C120.591 21.0275 119.024 21.6993 117.68 23.0428C116.337 24.2968 115.665 25.8195 115.665 27.6109C115.665 30.4771 116.695 32.4924 118.755 33.6568C120.905 34.7317 127.309 35.2243 137.968 35.1347C148.716 34.9556 156.912 34.9556 162.555 35.1347C168.197 35.3139 172.721 36.6574 176.124 39.1654C179.618 41.5838 182.394 45.077 184.454 49.645C186.604 54.1235 187.679 60.1695 187.679 67.7829Z" fill="white"/>
<path d="M270.813 61.0652H223.923C220.251 61.0652 216.802 60.3486 213.578 58.9155C210.353 57.4824 207.532 55.5567 205.113 53.1383C202.695 50.7199 200.769 47.8984 199.336 44.6739C197.993 41.4494 197.321 38.001 197.321 34.3286V1.00862H217.34V27.6109C217.34 28.8648 217.295 30.298 217.205 31.9102C217.205 33.4329 217.385 34.866 217.743 36.2096C218.101 37.5531 218.728 38.7175 219.624 39.7028C220.609 40.5985 222.042 41.0463 223.923 41.0463H270.813V1.00862H290.832V67.7829C290.832 71.4553 290.115 74.9037 288.682 78.1283C287.249 81.3528 285.323 84.1742 282.905 86.5926C280.486 89.011 277.665 90.9367 274.441 92.3699C271.216 93.803 267.768 94.5195 264.095 94.5195H206.994V74.5007H264.095C266.066 74.5007 267.499 74.0528 268.395 73.1571C269.38 72.2614 270.052 71.1418 270.41 69.7983C270.768 68.4547 270.903 67.0216 270.813 65.4989C270.813 63.8866 270.813 62.4087 270.813 61.0652Z" fill="white"/>
<path d="M392.36 67.7829C392.36 71.4553 391.643 74.9037 390.21 78.1283C388.777 81.3528 386.851 84.1742 384.433 86.5926C382.015 89.011 379.193 90.9367 375.969 92.3699C372.744 93.803 369.296 94.5195 365.623 94.5195H327.064C323.391 94.5195 319.898 93.8478 316.584 92.5042C313.359 91.0711 310.538 89.1453 308.119 86.727C305.701 84.3086 303.775 81.4871 302.342 78.2626C300.999 74.9485 300.327 71.4553 300.327 67.7829H320.346C320.346 69.6639 320.973 71.2762 322.227 72.6197C323.57 73.8737 325.183 74.5007 327.064 74.5007H365.623C367.594 74.5007 369.027 74.0528 369.923 73.1571C370.908 72.2614 371.58 71.1418 371.938 69.7983C372.296 68.4547 372.431 67.0216 372.341 65.4989C372.341 63.8866 372.341 62.4087 372.341 61.0652C372.341 59.2738 371.669 57.7511 370.326 56.4971C368.982 55.1536 367.415 54.4818 365.623 54.4818H327.064C323.391 54.4818 319.898 53.7653 316.584 52.3321C313.359 50.899 310.538 48.9733 308.119 46.5549C305.701 44.1365 303.775 41.3151 302.342 38.0905C300.999 34.7765 300.327 31.2832 300.327 27.6109C300.327 23.9385 301.044 20.4901 302.477 17.2655C303.91 14.041 305.835 11.2196 308.254 8.8012C310.672 6.38281 313.494 4.45706 316.718 3.02394C319.943 1.59082 323.391 0.874268 327.064 0.874268H365.623C369.296 0.874268 372.744 1.59082 375.969 3.02394C379.283 4.36749 382.149 6.24846 384.567 8.66684C386.986 11.0852 388.867 13.9515 390.21 17.2655C391.643 20.4901 392.36 23.9385 392.36 27.6109H372.341C372.341 25.8195 371.669 24.2968 370.326 23.0428C368.982 21.6993 367.415 21.0275 365.623 21.0275H327.064C325.272 21.0275 323.705 21.6993 322.361 23.0428C321.018 24.2968 320.346 25.8195 320.346 27.6109C320.346 30.4771 321.376 32.4924 323.436 33.6568C325.586 34.7317 331.99 35.2243 342.649 35.1347C353.397 34.9556 361.593 34.9556 367.236 35.1347C372.878 35.3139 377.402 36.6574 380.805 39.1654C384.299 41.5838 387.075 45.077 389.135 49.645C391.285 54.1235 392.36 60.1695 392.36 67.7829Z" fill="white"/>
<path d="M475.494 61.0652H428.604C424.932 61.0652 421.483 60.3486 418.259 58.9155C415.034 57.4824 412.213 55.5567 409.795 53.1383C407.376 50.7199 405.45 47.8984 404.017 44.6739C402.674 41.4494 402.002 38.001 402.002 34.3286V1.00862H422.021V27.6109C422.021 28.8648 421.976 30.298 421.886 31.9102C421.886 33.4329 422.066 34.866 422.424 36.2096C422.782 37.5531 423.409 38.7175 424.305 39.7028C425.29 40.5985 426.723 41.0463 428.604 41.0463H475.494V1.00862H495.513V67.7829C495.513 71.4553 494.796 74.9037 493.363 78.1283C491.93 81.3528 490.004 84.1742 487.586 86.5926C485.168 89.011 482.346 90.9367 479.122 92.3699C475.897 93.803 472.449 94.5195 468.776 94.5195H411.676V74.5007H468.776C470.747 74.5007 472.18 74.0528 473.076 73.1571C474.061 72.2614 474.733 71.1418 475.091 69.7983C475.449 68.4547 475.584 67.0216 475.494 65.4989C475.494 63.8866 475.494 62.4087 475.494 61.0652Z" fill="white"/>
<path d="M597.041 67.7829C597.041 71.4553 596.324 74.9037 594.891 78.1283C593.458 81.3528 591.532 84.1742 589.114 86.5926C586.696 89.011 583.874 90.9367 580.65 92.3699C577.425 93.803 573.977 94.5195 570.304 94.5195H531.745C528.072 94.5195 524.579 93.8478 521.265 92.5042C518.04 91.0711 515.219 89.1453 512.801 86.727C510.382 84.3086 508.456 81.4871 507.023 78.2626C505.68 74.9485 505.008 71.4553 505.008 67.7829H525.027C525.027 69.6639 525.654 71.2762 526.908 72.6197C528.251 73.8737 529.864 74.5007 531.745 74.5007H570.304C572.275 74.5007 573.708 74.0528 574.604 73.1571C575.589 72.2614 576.261 71.1418 576.619 69.7983C576.977 68.4547 577.112 67.0216 577.022 65.4989C577.022 63.8866 577.022 62.4087 577.022 61.0652C577.022 59.2738 576.35 57.7511 575.007 56.4971C573.663 55.1536 572.096 54.4818 570.304 54.4818H531.745C528.072 54.4818 524.579 53.7653 521.265 52.3321C518.04 50.899 515.219 48.9733 512.801 46.5549C510.382 44.1365 508.456 41.3151 507.023 38.0905C505.68 34.7765 505.008 31.2832 505.008 27.6109C505.008 23.9385 505.725 20.4901 507.158 17.2655C508.591 14.041 510.516 11.2196 512.935 8.8012C515.353 6.38281 518.175 4.45706 521.399 3.02394C524.624 1.59082 528.072 0.874268 531.745 0.874268H570.304C573.977 0.874268 577.425 1.59082 580.65 3.02394C583.964 4.36749 586.83 6.24846 589.248 8.66684C591.667 11.0852 593.548 13.9515 594.891 17.2655C596.324 20.4901 597.041 23.9385 597.041 27.6109H577.022C577.022 25.8195 576.35 24.2968 575.007 23.0428C573.663 21.6993 572.096 21.0275 570.304 21.0275H531.745C529.953 21.0275 528.386 21.6993 527.042 23.0428C525.699 24.2968 525.027 25.8195 525.027 27.6109C525.027 30.4771 526.057 32.4924 528.117 33.6568C530.267 34.7317 536.671 35.2243 547.33 35.1347C558.078 34.9556 566.274 34.9556 571.917 35.1347C577.56 35.3139 582.083 36.6574 585.486 39.1654C588.98 41.5838 591.756 45.077 593.816 49.645C595.966 54.1235 597.041 60.1695 597.041 67.7829Z" fill="white"/>
<path d="M699.253 1.00862V21.0275H662.44V94.5195H642.421V21.0275H605.608V1.00862H699.253Z" fill="white"/>
<path d="M801.772 94.5195H707.455V74.5007H781.619V57.1689H714.442V37.0157H781.619V21.0275H707.455V0.874268H801.772V94.5195Z" fill="white"/>
<path d="M911.458 0.874268V94.5195H891.439V32.9851L869.943 60.7965C868.957 61.9609 867.748 62.9014 866.315 63.6179C864.972 64.2449 863.538 64.5584 862.016 64.5584C860.493 64.5584 859.06 64.2449 857.716 63.6179C856.373 62.9014 855.208 61.9609 854.223 60.7965L832.458 32.9851V94.5195H812.439V0.874268H832.458L862.016 38.4936L891.439 0.874268H911.458Z" fill="white"/>
<path d="M51.0548 195.42H20.0189V228.874H0V135.229H64.8933C69.7301 135.229 73.8503 136.125 77.254 137.916C80.6576 139.618 83.4343 141.947 85.584 144.903C87.7336 147.858 89.3011 151.307 90.2864 155.248C91.2717 159.099 91.7643 163.175 91.7643 167.474C91.7643 173.654 90.152 179.163 86.9275 184C83.703 188.837 79.0902 192.24 73.089 194.211L91.7643 228.874H68.924L51.0548 195.42ZM71.6111 168.683V161.966C71.6111 160.174 70.9393 158.607 69.5958 157.263C68.2522 155.92 66.6847 155.248 64.8933 155.248H20.0189V175.401H64.8933C66.7743 175.401 68.3418 174.774 69.5958 173.52C70.9393 172.177 71.6111 170.564 71.6111 168.683Z" fill="white"/>
<path d="M195.208 228.874H100.891V208.855H175.055V191.524H107.877V171.37H175.055V155.382H100.891V135.229H195.208V228.874Z" fill="white"/>
<path d="M298.311 208.721V228.874H231.402C227.73 228.874 224.281 228.158 221.057 226.725C217.832 225.291 215.011 223.366 212.592 220.947C210.174 218.529 208.248 215.708 206.815 212.483C205.382 209.258 204.665 205.81 204.665 202.138V161.966C204.665 158.293 205.382 154.845 206.815 151.62C208.248 148.396 210.174 145.574 212.592 143.156C215.011 140.738 217.832 138.812 221.057 137.379C224.281 135.946 227.73 135.229 231.402 135.229H298.311V155.248H231.402C229.61 155.248 228.043 155.92 226.699 157.263C225.356 158.607 224.684 160.174 224.684 161.966V202.138C224.684 203.929 225.356 205.497 226.699 206.84C228.043 208.094 229.61 208.721 231.402 208.721H298.311Z" fill="white"/>
<path d="M397.433 162.1V202.138C397.433 205.81 396.716 209.303 395.283 212.617C393.94 215.842 392.059 218.663 389.64 221.082C387.222 223.5 384.356 225.426 381.042 226.859C377.817 228.203 374.369 228.874 370.696 228.874H333.883C330.211 228.874 326.717 228.203 323.403 226.859C320.179 225.426 317.357 223.5 314.939 221.082C312.521 218.663 310.595 215.842 309.162 212.617C307.818 209.303 307.146 205.81 307.146 202.138V162.1C307.146 158.428 307.818 154.979 309.162 151.755C310.595 148.441 312.521 145.574 314.939 143.156C317.357 140.738 320.179 138.857 323.403 137.513C326.717 136.08 330.211 135.363 333.883 135.363H370.696C374.369 135.363 377.817 136.08 381.042 137.513C384.356 138.857 387.222 140.738 389.64 143.156C392.059 145.574 393.94 148.441 395.283 151.755C396.716 154.979 397.433 158.428 397.433 162.1ZM377.414 202.138V162.1C377.414 160.309 376.742 158.741 375.399 157.398C374.055 156.054 372.488 155.382 370.696 155.382H333.883C332.092 155.382 330.524 156.054 329.181 157.398C327.837 158.741 327.165 160.309 327.165 162.1V202.138C327.165 203.929 327.837 205.497 329.181 206.84C330.524 208.184 332.092 208.855 333.883 208.855H370.696C372.488 208.855 374.055 208.184 375.399 206.84C376.742 205.497 377.414 203.929 377.414 202.138ZM352.693 159.547L359.276 174.192L374.324 176.207L363.71 187.224L366.128 202.809L352.693 195.42L339.257 202.809L341.541 187.224L330.659 176.207L345.572 174.192L352.693 159.547Z" fill="white"/>
<path d="M447.694 195.554L429.691 228.874H406.985L425.526 194.211C421.585 192.957 418.405 191.255 415.986 189.105C413.568 186.956 411.687 184.492 410.344 181.716C409 178.939 408.104 175.894 407.656 172.58C407.209 169.266 406.985 165.772 406.985 162.1C406.985 158.428 407.701 154.979 409.134 151.755C410.567 148.53 412.493 145.709 414.912 143.29C417.33 140.872 420.151 138.946 423.376 137.513C426.6 136.08 430.049 135.363 433.721 135.363H500.63V228.874H480.477V195.554H447.694ZM480.477 175.535V155.382H433.721C431.93 155.382 430.362 156.054 429.019 157.398C427.765 158.741 427.138 160.309 427.138 162.1V168.818C427.138 170.609 427.765 172.177 429.019 173.52C430.362 174.864 431.93 175.535 433.721 175.535H480.477Z" fill="white"/>
<path d="M510.381 135.229H576.887C580.559 135.229 584.008 135.946 587.232 137.379C590.457 138.812 593.278 140.738 595.696 143.156C598.115 145.574 600.041 148.396 601.474 151.62C602.907 154.845 603.623 158.293 603.623 161.966V202.138C603.623 205.81 602.907 209.258 601.474 212.483C600.041 215.708 598.115 218.529 595.696 220.947C593.278 223.366 590.457 225.291 587.232 226.725C584.008 228.158 580.559 228.874 576.887 228.874H510.381V135.229ZM583.604 202.138V161.966C583.604 160.174 582.933 158.652 581.589 157.398C580.246 156.054 578.678 155.382 576.887 155.382H530.4V208.855H576.887C578.678 208.855 580.246 208.184 581.589 206.84C582.933 205.497 583.604 203.929 583.604 202.138Z" fill="white"/>
<path d="M705.155 202.138C705.155 205.81 704.438 209.258 703.005 212.483C701.572 215.708 699.646 218.529 697.228 220.947C694.809 223.366 691.988 225.291 688.763 226.725C685.539 228.158 682.09 228.874 678.418 228.874H639.858C636.186 228.874 632.693 228.203 629.378 226.859C626.154 225.426 623.333 223.5 620.914 221.082C618.496 218.663 616.57 215.842 615.137 212.617C613.793 209.303 613.122 205.81 613.122 202.138H633.14C633.14 204.019 633.767 205.631 635.021 206.974C636.365 208.228 637.977 208.855 639.858 208.855H678.418C680.389 208.855 681.822 208.408 682.717 207.512C683.703 206.616 684.374 205.497 684.733 204.153C685.091 202.809 685.225 201.376 685.136 199.854C685.136 198.241 685.136 196.763 685.136 195.42C685.136 193.629 684.464 192.106 683.12 190.852C681.777 189.508 680.209 188.837 678.418 188.837H639.858C636.186 188.837 632.693 188.12 629.378 186.687C626.154 185.254 623.333 183.328 620.914 180.91C618.496 178.491 616.57 175.67 615.137 172.445C613.793 169.131 613.122 165.638 613.122 161.966C613.122 158.293 613.838 154.845 615.271 151.62C616.704 148.396 618.63 145.574 621.048 143.156C623.467 140.738 626.288 138.812 629.513 137.379C632.737 135.946 636.186 135.229 639.858 135.229H678.418C682.09 135.229 685.539 135.946 688.763 137.379C692.077 138.722 694.944 140.603 697.362 143.022C699.78 145.44 701.661 148.306 703.005 151.62C704.438 154.845 705.155 158.293 705.155 161.966H685.136C685.136 160.174 684.464 158.652 683.12 157.398C681.777 156.054 680.209 155.382 678.418 155.382H639.858C638.067 155.382 636.499 156.054 635.156 157.398C633.812 158.652 633.14 160.174 633.14 161.966C633.14 164.832 634.17 166.847 636.231 168.012C638.38 169.086 644.784 169.579 655.443 169.489C666.192 169.31 674.387 169.31 680.03 169.489C685.673 169.669 690.196 171.012 693.6 173.52C697.093 175.939 699.87 179.432 701.93 184C704.08 188.478 705.155 194.524 705.155 202.138Z" fill="white"/>
</svg>
